<svg width="355" height="898" viewBox="0 0 355 898" fill="none" xmlns="http://www.w3.org/2000/svg">
<g filter="url(#filter0_dd)">
<rect x="8" y="73.9998" width="335" height="812" rx="30" fill="white"/>
</g>
<path fill-rule="evenodd" clip-rule="evenodd" d="M8 604.501V682.133V685.253V856.001C8 872.57 21.4315 886.001 38 886.001H313C329.569 886.001 343 872.57 343 856.001V683.338V682.381V682.133H342.726L334.008 674.243C283.16 627.463 215.805 604.501 8 604.501Z" fill="url(#paint0_linear)"/>
<path fill-rule="evenodd" clip-rule="evenodd" d="M343 121V91.2518V89.9998V29.9998C343 13.4313 329.569 -0.000213623 313 -0.000213623H38C21.4315 -0.000213623 8 13.4313 8 29.9998V90.7348V91.1024V91.2518H8.3931C10.0359 91.8702 11.8428 92.4774 13.617 93.0737C14.3477 93.3193 15.0729 93.563 15.7788 93.8048L16.9924 94.2265C67.8398 112.185 135.195 121 343 121Z" fill="url(#paint1_linear)"/>
<path d="M112.922 750H110.967V736.035H103.114V750H101.138V734.295H112.922V750ZM127.209 744.081C127.209 746.007 126.722 747.511 125.748 748.593C124.774 749.674 123.428 750.215 121.709 750.215C120.642 750.215 119.697 749.968 118.873 749.473C118.049 748.972 117.416 748.256 116.972 747.325C116.528 746.394 116.306 745.313 116.306 744.081C116.306 742.162 116.785 740.668 117.745 739.601C118.705 738.527 120.051 737.99 121.784 737.99C123.446 737.99 124.763 738.538 125.737 739.634C126.718 740.722 127.209 742.205 127.209 744.081ZM118.304 744.081C118.304 745.563 118.594 746.691 119.174 747.465C119.761 748.231 120.624 748.614 121.763 748.614C122.887 748.614 123.743 748.231 124.33 747.465C124.917 746.691 125.211 745.563 125.211 744.081C125.211 742.598 124.914 741.485 124.319 740.74C123.732 739.988 122.869 739.612 121.73 739.612C119.446 739.612 118.304 741.102 118.304 744.081ZM135.867 750.215C134.285 750.215 133.067 749.645 132.215 748.507H132.086L132.129 748.947C132.186 749.506 132.215 750.003 132.215 750.44V755.285H130.281V738.205H131.871L132.129 739.816H132.215C132.673 739.172 133.203 738.706 133.805 738.42C134.406 738.133 135.101 737.99 135.889 737.99C137.421 737.99 138.61 738.524 139.455 739.591C140.307 740.65 140.733 742.147 140.733 744.081C140.733 746.007 140.307 747.511 139.455 748.593C138.603 749.674 137.407 750.215 135.867 750.215ZM135.545 739.612C134.378 739.612 133.533 739.941 133.01 740.6C132.494 741.259 132.229 742.294 132.215 743.705V744.081C132.215 745.678 132.48 746.834 133.01 747.551C133.54 748.26 134.399 748.614 135.588 748.614C136.576 748.614 137.346 748.213 137.897 747.411C138.456 746.609 138.735 745.492 138.735 744.059C138.735 742.62 138.456 741.521 137.897 740.761C137.346 739.995 136.562 739.612 135.545 739.612ZM151.852 739.838H147.995V750H146.083V739.838H142.28V738.205H151.852V739.838ZM166.955 744.102C166.955 745.857 166.439 747.271 165.408 748.345C164.384 749.42 162.955 750.028 161.122 750.172V755.285H159.231V750.172C157.427 750.021 156.005 749.409 154.967 748.335C153.928 747.26 153.409 745.85 153.409 744.102C153.409 742.312 153.925 740.89 154.956 739.838C155.987 738.778 157.434 738.176 159.296 738.033V733.285H161.122V738.033C162.934 738.212 164.359 738.839 165.397 739.913C166.436 740.987 166.955 742.384 166.955 744.102ZM155.429 744.102C155.429 746.831 156.718 748.328 159.296 748.593V739.634C157.95 739.77 156.968 740.217 156.353 740.976C155.737 741.728 155.429 742.77 155.429 744.102ZM164.957 744.102C164.957 741.417 163.679 739.934 161.122 739.655V748.593C163.679 748.313 164.957 746.816 164.957 744.102ZM180.297 744.081C180.297 746.007 179.81 747.511 178.836 748.593C177.862 749.674 176.516 750.215 174.797 750.215C173.73 750.215 172.785 749.968 171.961 749.473C171.137 748.972 170.504 748.256 170.06 747.325C169.616 746.394 169.394 745.313 169.394 744.081C169.394 742.162 169.873 740.668 170.833 739.601C171.793 738.527 173.139 737.99 174.872 737.99C176.534 737.99 177.851 738.538 178.825 739.634C179.806 740.722 180.297 742.205 180.297 744.081ZM171.392 744.081C171.392 745.563 171.682 746.691 172.262 747.465C172.849 748.231 173.712 748.614 174.851 748.614C175.975 748.614 176.831 748.231 177.418 747.465C178.005 746.691 178.299 745.563 178.299 744.081C178.299 742.598 178.002 741.485 177.407 740.74C176.82 739.988 175.957 739.612 174.818 739.612C172.534 739.612 171.392 741.102 171.392 744.081ZM192.35 750H190.384V739.816H186.914C186.714 742.394 186.441 744.421 186.098 745.896C185.761 747.364 185.317 748.442 184.766 749.13C184.221 749.81 183.523 750.15 182.671 750.15C182.205 750.15 181.865 750.1 181.65 750V748.55C181.801 748.607 182.001 748.635 182.252 748.635C183.04 748.635 183.666 747.805 184.132 746.143C184.604 744.482 184.973 741.836 185.238 738.205H192.35V750ZM197.914 738.205V745.402L197.828 747.486L197.785 748.088L204.102 738.205H206.476V750H204.671V743.05L204.703 741.556L204.757 740.138L198.483 750H196.088V738.205H197.914ZM220.494 744.081C220.494 746.007 220.007 747.511 219.033 748.593C218.059 749.674 216.713 750.215 214.994 750.215C213.927 750.215 212.982 749.968 212.158 749.473C211.335 748.972 210.701 748.256 210.257 747.325C209.813 746.394 209.591 745.313 209.591 744.081C209.591 742.162 210.071 740.668 211.03 739.601C211.99 738.527 213.336 737.99 215.069 737.99C216.731 737.99 218.049 738.538 219.022 739.634C220.004 740.722 220.494 742.205 220.494 744.081ZM211.589 744.081C211.589 745.563 211.879 746.691 212.459 747.465C213.046 748.231 213.909 748.614 215.048 748.614C216.172 748.614 217.028 748.231 217.615 747.465C218.202 746.691 218.496 745.563 218.496 744.081C218.496 742.598 218.199 741.485 217.604 740.74C217.017 739.988 216.154 739.612 215.016 739.612C212.731 739.612 211.589 741.102 211.589 744.081Z" fill="white"/>
<g clip-path="url(#clip0)" filter="url(#filter1_d)">
<path d="M72 731.388H58.1933L55.4433 728.118C55.3612 728.019 55.2382 727.964 55.11 727.968H44C42.337 727.984 40.9981 729.338 41 731.001V751.001C40.9999 752.663 42.3383 754.015 44 754.031H72C73.6616 754.015 75.0001 752.663 75 751.001V734.418C75.0001 732.756 73.6616 731.404 72 731.388Z" fill="#95D2FF"/>
</g>
<path d="M101.159 778.295H103.007V786.921C103.007 787.529 102.989 788.335 102.953 789.338C102.917 790.34 102.882 790.992 102.846 791.293H102.942L111.579 778.295H113.781V794H111.934V785.46C111.934 784.715 111.959 783.848 112.009 782.86C112.059 781.865 112.095 781.22 112.116 780.927H112.02L103.361 794H101.159V778.295ZM126.758 794H124.792V783.816H121.322C121.122 786.394 120.85 788.421 120.506 789.896C120.169 791.364 119.725 792.442 119.174 793.13C118.63 793.81 117.931 794.15 117.079 794.15C116.614 794.15 116.273 794.1 116.059 794V792.55C116.209 792.607 116.41 792.635 116.66 792.635C117.448 792.635 118.075 791.805 118.54 790.143C119.013 788.482 119.382 785.836 119.646 782.205H126.758V794ZM139.477 794H137.511V783.816H134.041C133.84 786.394 133.568 788.421 133.225 789.896C132.888 791.364 132.444 792.442 131.893 793.13C131.348 793.81 130.65 794.15 129.798 794.15C129.332 794.15 128.992 794.1 128.777 794V792.55C128.928 792.607 129.128 792.635 129.379 792.635C130.167 792.635 130.793 791.805 131.259 790.143C131.731 788.482 132.1 785.836 132.365 782.205H139.477V794ZM158.522 788.081C158.522 790.014 158.057 791.522 157.126 792.603C156.202 793.677 154.931 794.215 153.312 794.215C151.78 794.215 150.559 793.738 149.649 792.786C148.747 791.826 148.246 790.48 148.146 788.747H145.148V794H143.215V782.205H145.148V787.114H148.167C148.325 785.474 148.854 784.21 149.757 783.322C150.659 782.434 151.859 781.99 153.355 781.99C154.945 781.99 156.202 782.538 157.126 783.634C158.057 784.729 158.522 786.212 158.522 788.081ZM150.122 788.081C150.122 789.57 150.376 790.698 150.885 791.465C151.393 792.231 152.21 792.614 153.334 792.614C154.458 792.614 155.271 792.231 155.772 791.465C156.274 790.698 156.524 789.57 156.524 788.081C156.524 786.613 156.27 785.503 155.762 784.751C155.253 783.992 154.444 783.612 153.334 783.612C152.21 783.612 151.393 783.992 150.885 784.751C150.376 785.503 150.122 786.613 150.122 788.081ZM166.332 794.215C164.635 794.215 163.313 793.695 162.368 792.657C161.423 791.611 160.95 790.115 160.95 788.167C160.95 786.19 161.426 784.668 162.379 783.601C163.339 782.527 164.703 781.99 166.472 781.99C167.045 781.99 167.61 782.051 168.169 782.173C168.735 782.287 169.2 782.438 169.565 782.624L168.975 784.235C167.979 783.863 167.131 783.677 166.429 783.677C165.24 783.677 164.363 784.052 163.797 784.804C163.231 785.549 162.948 786.663 162.948 788.145C162.948 789.57 163.231 790.663 163.797 791.422C164.363 792.174 165.201 792.55 166.311 792.55C167.349 792.55 168.369 792.32 169.372 791.862V793.581C168.556 794.003 167.542 794.215 166.332 794.215ZM180.318 783.838H176.462V794H174.55V783.838H170.747V782.205H180.318V783.838ZM188.246 794.215C186.663 794.215 185.446 793.645 184.594 792.507H184.465L184.508 792.947C184.565 793.506 184.594 794.003 184.594 794.44V799.285H182.66V782.205H184.25L184.508 783.816H184.594C185.052 783.172 185.582 782.706 186.184 782.42C186.785 782.133 187.48 781.99 188.268 781.99C189.8 781.99 190.989 782.524 191.834 783.591C192.686 784.65 193.112 786.147 193.112 788.081C193.112 790.007 192.686 791.511 191.834 792.593C190.982 793.674 189.786 794.215 188.246 794.215ZM187.924 783.612C186.757 783.612 185.911 783.941 185.389 784.6C184.873 785.259 184.608 786.294 184.594 787.705V788.081C184.594 789.678 184.859 790.834 185.389 791.551C185.919 792.26 186.778 792.614 187.967 792.614C188.955 792.614 189.725 792.213 190.276 791.411C190.835 790.609 191.114 789.492 191.114 788.059C191.114 786.62 190.835 785.521 190.276 784.761C189.725 783.995 188.941 783.612 187.924 783.612ZM203.479 794L203.103 792.324H203.017C202.429 793.062 201.842 793.563 201.255 793.828C200.675 794.086 199.941 794.215 199.053 794.215C197.893 794.215 196.983 793.91 196.324 793.302C195.665 792.693 195.336 791.833 195.336 790.723C195.336 788.331 197.223 787.078 200.997 786.964L202.995 786.888V786.19C202.995 785.295 202.802 784.636 202.415 784.214C202.028 783.784 201.409 783.569 200.557 783.569C199.934 783.569 199.343 783.662 198.784 783.848C198.233 784.035 197.714 784.242 197.227 784.471L196.636 783.021C197.23 782.706 197.878 782.459 198.58 782.28C199.282 782.101 199.977 782.011 200.664 782.011C202.089 782.011 203.149 782.327 203.844 782.957C204.538 783.587 204.886 784.59 204.886 785.965V794H203.479ZM199.493 792.657C200.575 792.657 201.423 792.367 202.039 791.787C202.662 791.2 202.974 790.369 202.974 789.295V788.231L201.233 788.306C199.88 788.357 198.892 788.571 198.269 788.951C197.653 789.33 197.345 789.928 197.345 790.745C197.345 791.361 197.531 791.833 197.903 792.163C198.283 792.492 198.813 792.657 199.493 792.657ZM220.183 798.093H218.292V794H208.549V782.205H210.482V792.367H216.584V782.205H218.518V792.388H220.183V798.093ZM224.275 782.205V789.402L224.189 791.486L224.146 792.088L230.463 782.205H232.837V794H231.032V787.05L231.064 785.556L231.118 784.138L224.845 794H222.449V782.205H224.275ZM238.434 782.205V789.402L238.348 791.486L238.305 792.088L244.621 782.205H246.995V794H245.19V787.05L245.223 785.556L245.276 784.138L239.003 794H236.607V782.205H238.434Z" fill="white"/>
<g clip-path="url(#clip1)" filter="url(#filter2_d)">
<path d="M72 775.388H58.1933L55.4433 772.118C55.3612 772.019 55.2382 771.964 55.11 771.968H44C42.337 771.984 40.9981 773.338 41 775.001V795.001C40.9999 796.663 42.3383 798.015 44 798.031H72C73.6616 798.015 75.0001 796.663 75 795.001V778.418C75.0001 776.756 73.6616 775.404 72 775.388Z" fill="#95D2FF"/>
</g>
<path d="M112.922 838H110.967V824.035H103.114V838H101.138V822.295H112.922V838ZM127.209 832.081C127.209 834.007 126.722 835.511 125.748 836.593C124.774 837.674 123.428 838.215 121.709 838.215C120.642 838.215 119.697 837.968 118.873 837.473C118.049 836.972 117.416 836.256 116.972 835.325C116.528 834.394 116.306 833.313 116.306 832.081C116.306 830.162 116.785 828.668 117.745 827.601C118.705 826.527 120.051 825.99 121.784 825.99C123.446 825.99 124.763 826.538 125.737 827.634C126.718 828.722 127.209 830.205 127.209 832.081ZM118.304 832.081C118.304 833.563 118.594 834.691 119.174 835.465C119.761 836.231 120.624 836.614 121.763 836.614C122.887 836.614 123.743 836.231 124.33 835.465C124.917 834.691 125.211 833.563 125.211 832.081C125.211 830.598 124.914 829.485 124.319 828.74C123.732 827.988 122.869 827.612 121.73 827.612C119.446 827.612 118.304 829.102 118.304 832.081ZM135.867 838.215C134.285 838.215 133.067 837.645 132.215 836.507H132.086L132.129 836.947C132.186 837.506 132.215 838.003 132.215 838.44V843.285H130.281V826.205H131.871L132.129 827.816H132.215C132.673 827.172 133.203 826.706 133.805 826.42C134.406 826.133 135.101 825.99 135.889 825.99C137.421 825.99 138.61 826.524 139.455 827.591C140.307 828.65 140.733 830.147 140.733 832.081C140.733 834.007 140.307 835.511 139.455 836.593C138.603 837.674 137.407 838.215 135.867 838.215ZM135.545 827.612C134.378 827.612 133.533 827.941 133.01 828.6C132.494 829.259 132.229 830.294 132.215 831.705V832.081C132.215 833.678 132.48 834.834 133.01 835.551C133.54 836.26 134.399 836.614 135.588 836.614C136.576 836.614 137.346 836.213 137.897 835.411C138.456 834.609 138.735 833.492 138.735 832.059C138.735 830.62 138.456 829.521 137.897 828.761C137.346 827.995 136.562 827.612 135.545 827.612ZM151.852 827.838H147.995V838H146.083V827.838H142.28V826.205H151.852V827.838ZM159.779 838.215C158.197 838.215 156.979 837.645 156.127 836.507H155.998L156.041 836.947C156.098 837.506 156.127 838.003 156.127 838.44V843.285H154.193V826.205H155.783L156.041 827.816H156.127C156.585 827.172 157.115 826.706 157.717 826.42C158.318 826.133 159.013 825.99 159.801 825.99C161.333 825.99 162.522 826.524 163.367 827.591C164.219 828.65 164.646 830.147 164.646 832.081C164.646 834.007 164.219 835.511 163.367 836.593C162.515 837.674 161.319 838.215 159.779 838.215ZM159.457 827.612C158.29 827.612 157.445 827.941 156.922 828.6C156.406 829.259 156.141 830.294 156.127 831.705V832.081C156.127 833.678 156.392 834.834 156.922 835.551C157.452 836.26 158.311 836.614 159.5 836.614C160.488 836.614 161.258 836.213 161.81 835.411C162.368 834.609 162.647 833.492 162.647 832.059C162.647 830.62 162.368 829.521 161.81 828.761C161.258 827.995 160.474 827.612 159.457 827.612ZM172.745 838.215C170.976 838.215 169.587 837.681 168.577 836.614C167.575 835.54 167.073 834.065 167.073 832.188C167.073 830.298 167.542 828.794 168.48 827.677C169.419 826.552 170.686 825.99 172.283 825.99C173.766 825.99 174.947 826.47 175.828 827.429C176.709 828.382 177.149 829.675 177.149 831.307V832.478H169.071C169.107 833.817 169.447 834.834 170.092 835.529C170.736 836.224 171.649 836.571 172.831 836.571C173.461 836.571 174.059 836.517 174.625 836.41C175.191 836.295 175.853 836.077 176.612 835.755V837.452C175.961 837.731 175.348 837.928 174.775 838.043C174.202 838.157 173.526 838.215 172.745 838.215ZM172.262 827.569C171.338 827.569 170.607 827.866 170.07 828.461C169.533 829.055 169.215 829.882 169.114 830.942H175.119C175.105 829.839 174.851 829.001 174.356 828.428C173.862 827.856 173.164 827.569 172.262 827.569ZM188.289 827.838H184.433V838H182.521V827.838H178.718V826.205H188.289V827.838ZM192.564 826.205V831.114H198.967V826.205H200.9V838H198.967V832.747H192.564V838H190.631V826.205H192.564ZM211.943 838L211.567 836.324H211.481C210.894 837.062 210.307 837.563 209.72 837.828C209.14 838.086 208.406 838.215 207.518 838.215C206.357 838.215 205.448 837.91 204.789 837.302C204.13 836.693 203.801 835.833 203.801 834.723C203.801 832.331 205.688 831.078 209.462 830.964L211.46 830.888V830.19C211.46 829.295 211.267 828.636 210.88 828.214C210.493 827.784 209.874 827.569 209.021 827.569C208.398 827.569 207.808 827.662 207.249 827.848C206.698 828.035 206.178 828.242 205.691 828.471L205.101 827.021C205.695 826.706 206.343 826.459 207.045 826.28C207.747 826.101 208.441 826.011 209.129 826.011C210.554 826.011 211.614 826.327 212.309 826.957C213.003 827.587 213.351 828.59 213.351 829.965V838H211.943ZM207.958 836.657C209.039 836.657 209.888 836.367 210.504 835.787C211.127 835.2 211.438 834.369 211.438 833.295V832.231L209.698 832.306C208.345 832.357 207.356 832.571 206.733 832.951C206.118 833.33 205.81 833.928 205.81 834.745C205.81 835.361 205.996 835.833 206.368 836.163C206.748 836.492 207.278 836.657 207.958 836.657ZM217.744 838H215.499L218.861 833.048C217.959 832.818 217.275 832.414 216.81 831.834C216.344 831.254 216.111 830.538 216.111 829.685C216.111 828.597 216.48 827.745 217.218 827.129C217.955 826.513 218.979 826.205 220.29 826.205H225.575V838H223.642V833.316H220.773L217.744 838ZM217.98 829.707C217.98 831.039 218.94 831.705 220.859 831.705H223.642V827.816H220.494C219.671 827.816 219.044 827.977 218.614 828.3C218.192 828.622 217.98 829.091 217.98 829.707ZM238.305 838.215C236.607 838.215 235.286 837.695 234.341 836.657C233.396 835.611 232.923 834.115 232.923 832.167C232.923 830.19 233.399 828.668 234.352 827.601C235.311 826.527 236.675 825.99 238.444 825.99C239.017 825.99 239.583 826.051 240.142 826.173C240.707 826.287 241.173 826.438 241.538 826.624L240.947 828.235C239.952 827.863 239.103 827.677 238.401 827.677C237.213 827.677 236.335 828.052 235.77 828.804C235.204 829.549 234.921 830.663 234.921 832.145C234.921 833.57 235.204 834.663 235.77 835.422C236.335 836.174 237.173 836.55 238.283 836.55C239.322 836.55 240.342 836.32 241.345 835.862V837.581C240.528 838.003 239.515 838.215 238.305 838.215ZM248.37 831.05H251.625C254.812 831.05 256.405 832.163 256.405 834.39C256.405 836.797 254.805 838 251.604 838H246.437V827.838H242.677V826.205H248.37V831.05ZM254.493 834.498C254.493 833.853 254.275 833.388 253.838 833.101C253.408 832.815 252.649 832.672 251.561 832.672H248.37V836.442H251.625C253.537 836.442 254.493 835.794 254.493 834.498ZM264.483 838.215C262.715 838.215 261.325 837.681 260.315 836.614C259.313 835.54 258.812 834.065 258.812 832.188C258.812 830.298 259.281 828.794 260.219 827.677C261.157 826.552 262.424 825.99 264.021 825.99C265.504 825.99 266.686 826.47 267.566 827.429C268.447 828.382 268.888 829.675 268.888 831.307V832.478H260.81C260.845 833.817 261.186 834.834 261.83 835.529C262.475 836.224 263.388 836.571 264.569 836.571C265.2 836.571 265.798 836.517 266.363 836.41C266.929 836.295 267.591 836.077 268.351 835.755V837.452C267.699 837.731 267.087 837.928 266.514 838.043C265.941 838.157 265.264 838.215 264.483 838.215ZM264 827.569C263.076 827.569 262.346 827.866 261.809 828.461C261.271 829.055 260.953 829.882 260.853 830.942H266.857C266.843 829.839 266.589 829.001 266.095 828.428C265.601 827.856 264.902 827.569 264 827.569ZM278.158 836.152C278.373 835.372 278.645 834.566 278.975 833.735L282.047 826.205H284.539V838H282.799V828.278C282.548 829.059 282.255 829.879 281.918 830.738L278.975 838H277.406L274.463 830.695C274.32 830.351 274.176 829.975 274.033 829.567C273.897 829.159 273.761 828.729 273.625 828.278V838H271.885V826.205H274.302L277.277 833.445C277.542 834.118 277.836 835.021 278.158 836.152ZM295.271 826.205H297.387L292.349 831.887L297.806 838H295.561L290.232 832.016V838H288.299V826.205H290.232V831.93L295.271 826.205ZM307.227 838L306.851 836.324H306.765C306.177 837.062 305.59 837.563 305.003 837.828C304.423 838.086 303.689 838.215 302.801 838.215C301.641 838.215 300.731 837.91 300.072 837.302C299.413 836.693 299.084 835.833 299.084 834.723C299.084 832.331 300.971 831.078 304.745 830.964L306.743 830.888V830.19C306.743 829.295 306.55 828.636 306.163 828.214C305.776 827.784 305.157 827.569 304.305 827.569C303.682 827.569 303.091 827.662 302.532 827.848C301.981 828.035 301.462 828.242 300.975 828.471L300.384 827.021C300.978 826.706 301.626 826.459 302.328 826.28C303.03 826.101 303.725 826.011 304.412 826.011C305.837 826.011 306.897 826.327 307.592 826.957C308.286 827.587 308.634 828.59 308.634 829.965V838H307.227ZM303.241 836.657C304.323 836.657 305.171 836.367 305.787 835.787C306.41 835.2 306.722 834.369 306.722 833.295V832.231L304.981 832.306C303.628 832.357 302.64 832.571 302.017 832.951C301.401 833.33 301.093 833.928 301.093 834.745C301.093 835.361 301.279 835.833 301.651 836.163C302.031 836.492 302.561 836.657 303.241 836.657Z" fill="white"/>
<g clip-path="url(#clip2)" filter="url(#filter3_d)">
<path d="M72 819.388H58.1933L55.4433 816.118C55.3612 816.019 55.2382 815.964 55.11 815.968H44C42.337 815.984 40.9981 817.338 41 819.001V839.001C40.9999 840.663 42.3383 842.015 44 842.031H72C73.6616 842.015 75.0001 840.663 75 839.001V822.418C75.0001 820.756 73.6616 819.404 72 819.388Z" fill="#95D2FF"/>
</g>
<path d="M56.1875 679H54.0547V663.765H45.4883V679H43.332V661.867H56.1875V679ZM71.7734 672.543C71.7734 674.644 71.2422 676.285 70.1797 677.465C69.1172 678.644 67.6484 679.234 65.7734 679.234C64.6094 679.234 63.5781 678.965 62.6797 678.426C61.7812 677.879 61.0898 677.097 60.6055 676.082C60.1211 675.066 59.8789 673.886 59.8789 672.543C59.8789 670.449 60.4023 668.82 61.4492 667.656C62.4961 666.484 63.9648 665.898 65.8555 665.898C67.668 665.898 69.1055 666.496 70.168 667.691C71.2383 668.879 71.7734 670.496 71.7734 672.543ZM62.0586 672.543C62.0586 674.16 62.375 675.39 63.0078 676.234C63.6484 677.07 64.5898 677.488 65.832 677.488C67.0586 677.488 67.9922 677.07 68.6328 676.234C69.2734 675.39 69.5938 674.16 69.5938 672.543C69.5938 670.926 69.2695 669.711 68.6211 668.898C67.9805 668.078 67.0391 667.668 65.7969 667.668C63.3047 667.668 62.0586 669.293 62.0586 672.543ZM80.2812 679.234C78.4297 679.234 76.9883 678.668 75.957 677.535C74.9258 676.394 74.4102 674.761 74.4102 672.636C74.4102 670.48 74.9297 668.82 75.9688 667.656C77.0156 666.484 78.5039 665.898 80.4336 665.898C81.0586 665.898 81.6758 665.965 82.2852 666.097C82.9023 666.222 83.4102 666.386 83.8086 666.59L83.1641 668.347C82.0781 667.941 81.1523 667.738 80.3867 667.738C79.0898 667.738 78.1328 668.148 77.5156 668.969C76.8984 669.781 76.5898 670.996 76.5898 672.613C76.5898 674.168 76.8984 675.359 77.5156 676.187C78.1328 677.008 79.0469 677.418 80.2578 677.418C81.3906 677.418 82.5039 677.168 83.5977 676.668V678.543C82.707 679.004 81.6016 679.234 80.2812 679.234ZM96.4531 679H94.3086V667.89H90.5234C90.3047 670.703 90.0078 672.914 89.6328 674.523C89.2656 676.125 88.7812 677.301 88.1797 678.051C87.5859 678.793 86.8242 679.164 85.8945 679.164C85.3867 679.164 85.0156 679.109 84.7812 679V677.418C84.9453 677.48 85.1641 677.511 85.4375 677.511C86.2969 677.511 86.9805 676.605 87.4883 674.793C88.0039 672.98 88.4062 670.094 88.6953 666.133H96.4531V679ZM106.004 679.234C104.074 679.234 102.559 678.652 101.457 677.488C100.363 676.316 99.8164 674.707 99.8164 672.66C99.8164 670.597 100.328 668.957 101.352 667.738C102.375 666.511 103.758 665.898 105.5 665.898C107.117 665.898 108.406 666.422 109.367 667.469C110.328 668.508 110.809 669.918 110.809 671.699V672.976H101.996C102.035 674.437 102.406 675.547 103.109 676.304C103.812 677.062 104.809 677.441 106.098 677.441C106.785 677.441 107.438 677.383 108.055 677.265C108.672 677.14 109.395 676.902 110.223 676.551V678.402C109.512 678.707 108.844 678.922 108.219 679.047C107.594 679.172 106.855 679.234 106.004 679.234ZM105.477 667.621C104.469 667.621 103.672 667.945 103.086 668.594C102.5 669.242 102.152 670.144 102.043 671.301H108.594C108.578 670.097 108.301 669.183 107.762 668.558C107.223 667.933 106.461 667.621 105.477 667.621ZM125.504 683.465H123.465V679H114.512V683.465H112.496V677.219H113.527C114.566 675.773 115.375 674.101 115.953 672.203C116.531 670.297 116.836 668.273 116.867 666.133H123.629V677.219H125.504V683.465ZM121.59 677.219V667.797H118.73C118.613 669.523 118.277 671.258 117.723 673C117.176 674.734 116.504 676.14 115.707 677.219H121.59ZM130.133 666.133V671.488H137.117V666.133H139.227V679H137.117V673.269H130.133V679H128.023V666.133H130.133ZM145.32 666.133V673.984L145.227 676.258L145.18 676.914L152.07 666.133H154.66V679H152.691V671.418L152.727 669.789L152.785 668.242L145.941 679H143.328V666.133H145.32ZM164.246 679.234C162.316 679.234 160.801 678.652 159.699 677.488C158.605 676.316 158.059 674.707 158.059 672.66C158.059 670.597 158.57 668.957 159.594 667.738C160.617 666.511 162 665.898 163.742 665.898C165.359 665.898 166.648 666.422 167.609 667.469C168.57 668.508 169.051 669.918 169.051 671.699V672.976H160.238C160.277 674.437 160.648 675.547 161.352 676.304C162.055 677.062 163.051 677.441 164.34 677.441C165.027 677.441 165.68 677.383 166.297 677.265C166.914 677.14 167.637 676.902 168.465 676.551V678.402C167.754 678.707 167.086 678.922 166.461 679.047C165.836 679.172 165.098 679.234 164.246 679.234ZM163.719 667.621C162.711 667.621 161.914 667.945 161.328 668.594C160.742 669.242 160.395 670.144 160.285 671.301H166.836C166.82 670.097 166.543 669.183 166.004 668.558C165.465 667.933 164.703 667.621 163.719 667.621ZM191 672.566C191 674.48 190.438 676.023 189.312 677.195C188.195 678.367 186.637 679.031 184.637 679.187V684.765H182.574V679.187C180.605 679.023 179.055 678.355 177.922 677.183C176.789 676.011 176.223 674.472 176.223 672.566C176.223 670.613 176.785 669.062 177.91 667.914C179.035 666.758 180.613 666.101 182.645 665.945V660.765H184.637V665.945C186.613 666.14 188.168 666.824 189.301 667.996C190.434 669.168 191 670.691 191 672.566ZM178.426 672.566C178.426 675.543 179.832 677.176 182.645 677.465V667.691C181.176 667.84 180.105 668.328 179.434 669.156C178.762 669.976 178.426 671.113 178.426 672.566ZM188.82 672.566C188.82 669.636 187.426 668.019 184.637 667.715V677.465C187.426 677.16 188.82 675.527 188.82 672.566ZM202.32 679L201.91 677.172H201.816C201.176 677.976 200.535 678.523 199.895 678.812C199.262 679.094 198.461 679.234 197.492 679.234C196.227 679.234 195.234 678.902 194.516 678.238C193.797 677.574 193.438 676.636 193.438 675.426C193.438 672.816 195.496 671.449 199.613 671.324L201.793 671.242V670.48C201.793 669.504 201.582 668.785 201.16 668.324C200.738 667.855 200.062 667.621 199.133 667.621C198.453 667.621 197.809 667.722 197.199 667.926C196.598 668.129 196.031 668.355 195.5 668.605L194.855 667.023C195.504 666.679 196.211 666.41 196.977 666.215C197.742 666.019 198.5 665.922 199.25 665.922C200.805 665.922 201.961 666.265 202.719 666.953C203.477 667.64 203.855 668.734 203.855 670.234V679H202.32ZM197.973 677.535C199.152 677.535 200.078 677.219 200.75 676.586C201.43 675.945 201.77 675.039 201.77 673.867V672.707L199.871 672.789C198.395 672.844 197.316 673.078 196.637 673.492C195.965 673.906 195.629 674.558 195.629 675.449C195.629 676.121 195.832 676.636 196.238 676.996C196.652 677.355 197.23 677.535 197.973 677.535ZM209.844 666.133V673.984L209.75 676.258L209.703 676.914L216.594 666.133H219.184V679H217.215V671.418L217.25 669.789L217.309 668.242L210.465 679H207.852V666.133H209.844ZM213.477 664.457C211.977 664.457 210.883 664.172 210.195 663.601C209.516 663.031 209.137 662.101 209.059 660.812H211.027C211.098 661.625 211.309 662.191 211.66 662.511C212.02 662.832 212.641 662.992 213.523 662.992C214.328 662.992 214.922 662.82 215.305 662.476C215.695 662.133 215.934 661.578 216.02 660.812H218.012C217.895 662.078 217.469 663.004 216.734 663.59C216 664.168 214.914 664.457 213.477 664.457ZM233.094 679H230.949V667.89H227.164C226.945 670.703 226.648 672.914 226.273 674.523C225.906 676.125 225.422 677.301 224.82 678.051C224.227 678.793 223.465 679.164 222.535 679.164C222.027 679.164 221.656 679.109 221.422 679V677.418C221.586 677.48 221.805 677.511 222.078 677.511C222.938 677.511 223.621 676.605 224.129 674.793C224.645 672.98 225.047 670.094 225.336 666.133H233.094V679ZM239.281 671.418H242.621C244.293 671.418 245.527 671.722 246.324 672.332C247.121 672.941 247.52 673.851 247.52 675.062C247.52 676.367 247.098 677.351 246.254 678.015C245.41 678.672 244.168 679 242.527 679H237.172V666.133H239.281V671.418ZM245.434 675.179C245.434 674.484 245.199 673.976 244.73 673.656C244.27 673.328 243.477 673.164 242.352 673.164H239.281V677.301H242.328C244.398 677.301 245.434 676.594 245.434 675.179ZM251.762 679H249.652V666.133H251.762V679Z" fill="white"/>
<path d="M87.5 157.867V159.789H79.9883V175H77.832V157.867H87.5ZM99.2188 175H97.0742V163.89H93.2891C93.0703 166.703 92.7734 168.914 92.3984 170.523C92.0312 172.125 91.5469 173.301 90.9453 174.051C90.3516 174.793 89.5898 175.164 88.6602 175.164C88.1523 175.164 87.7812 175.109 87.5469 175V173.418C87.7109 173.48 87.9297 173.511 88.2031 173.511C89.0625 173.511 89.7461 172.605 90.2539 170.793C90.7695 168.98 91.1719 166.094 91.4609 162.133H99.2188V175ZM111.242 175L110.832 173.172H110.738C110.098 173.976 109.457 174.523 108.816 174.812C108.184 175.094 107.383 175.234 106.414 175.234C105.148 175.234 104.156 174.902 103.438 174.238C102.719 173.574 102.359 172.636 102.359 171.426C102.359 168.816 104.418 167.449 108.535 167.324L110.715 167.242V166.48C110.715 165.504 110.504 164.785 110.082 164.324C109.66 163.855 108.984 163.621 108.055 163.621C107.375 163.621 106.73 163.722 106.121 163.926C105.52 164.129 104.953 164.355 104.422 164.605L103.777 163.023C104.426 162.679 105.133 162.41 105.898 162.215C106.664 162.019 107.422 161.922 108.172 161.922C109.727 161.922 110.883 162.265 111.641 162.953C112.398 163.64 112.777 164.734 112.777 166.234V175H111.242ZM106.895 173.535C108.074 173.535 109 173.219 109.672 172.586C110.352 171.945 110.691 171.039 110.691 169.867V168.707L108.793 168.789C107.316 168.844 106.238 169.078 105.559 169.492C104.887 169.906 104.551 170.558 104.551 171.449C104.551 172.121 104.754 172.636 105.16 172.996C105.574 173.355 106.152 173.535 106.895 173.535ZM127.355 165.379C127.355 166.207 127.121 166.84 126.652 167.277C126.184 167.707 125.516 168 124.648 168.156V168.261C125.734 168.41 126.523 168.734 127.016 169.234C127.516 169.726 127.766 170.39 127.766 171.226C127.766 172.445 127.316 173.379 126.418 174.027C125.527 174.676 124.242 175 122.562 175H116.773V162.133H122.539C125.75 162.133 127.355 163.215 127.355 165.379ZM125.656 171.109C125.656 170.39 125.375 169.886 124.812 169.597C124.25 169.308 123.426 169.164 122.34 169.164H118.883V173.301H122.387C124.566 173.301 125.656 172.57 125.656 171.109ZM125.293 165.566C125.293 164.965 125.059 164.535 124.59 164.277C124.129 164.019 123.43 163.89 122.492 163.89H118.883V167.418H122.105C123.254 167.418 124.07 167.277 124.555 166.996C125.047 166.707 125.293 166.23 125.293 165.566ZM132.711 162.133V167.488H139.695V162.133H141.805V175H139.695V169.269H132.711V175H130.602V162.133H132.711ZM153.852 175L153.441 173.172H153.348C152.707 173.976 152.066 174.523 151.426 174.812C150.793 175.094 149.992 175.234 149.023 175.234C147.758 175.234 146.766 174.902 146.047 174.238C145.328 173.574 144.969 172.636 144.969 171.426C144.969 168.816 147.027 167.449 151.145 167.324L153.324 167.242V166.48C153.324 165.504 153.113 164.785 152.691 164.324C152.27 163.855 151.594 163.621 150.664 163.621C149.984 163.621 149.34 163.722 148.73 163.926C148.129 164.129 147.562 164.355 147.031 164.605L146.387 163.023C147.035 162.679 147.742 162.41 148.508 162.215C149.273 162.019 150.031 161.922 150.781 161.922C152.336 161.922 153.492 162.265 154.25 162.953C155.008 163.64 155.387 164.734 155.387 166.234V175H153.852ZM149.504 173.535C150.684 173.535 151.609 173.219 152.281 172.586C152.961 171.945 153.301 171.039 153.301 169.867V168.707L151.402 168.789C149.926 168.844 148.848 169.078 148.168 169.492C147.496 169.906 147.16 170.558 147.16 171.449C147.16 172.121 147.363 172.636 147.77 172.996C148.184 173.355 148.762 173.535 149.504 173.535ZM160.18 175H157.73L161.398 169.597C160.414 169.347 159.668 168.906 159.16 168.273C158.652 167.64 158.398 166.859 158.398 165.929C158.398 164.742 158.801 163.812 159.605 163.14C160.41 162.469 161.527 162.133 162.957 162.133H168.723V175H166.613V169.89H163.484L160.18 175ZM160.438 165.953C160.438 167.406 161.484 168.133 163.578 168.133H166.613V163.89H163.18C162.281 163.89 161.598 164.066 161.129 164.418C160.668 164.769 160.438 165.281 160.438 165.953Z" fill="#5A5A5A"/>
<path d="M77.832 221.867H82.7188C85.0156 221.867 86.6719 222.211 87.6875 222.898C88.7109 223.578 89.2227 224.648 89.2227 226.109C89.2227 227.125 88.9453 227.965 88.3906 228.629C87.8359 229.285 87.0273 229.711 85.9648 229.906V230.023C87.2852 230.25 88.2539 230.707 88.8711 231.394C89.4961 232.082 89.8086 232.992 89.8086 234.125C89.8086 235.656 89.2852 236.851 88.2383 237.711C87.1914 238.57 85.7305 239 83.8555 239H77.832V221.867ZM79.9883 229.156H83.1523C84.4961 229.156 85.4727 228.941 86.082 228.511C86.6914 228.082 86.9961 227.363 86.9961 226.355C86.9961 225.418 86.6602 224.742 85.9883 224.328C85.3242 223.914 84.2695 223.707 82.8242 223.707H79.9883V229.156ZM79.9883 230.961V237.172H83.4453C84.8203 237.172 85.8398 236.906 86.5039 236.375C87.168 235.844 87.5 235.039 87.5 233.961C87.5 232.937 87.1484 232.183 86.4453 231.699C85.7422 231.207 84.6875 230.961 83.2812 230.961H79.9883ZM98.3047 239.234C96.4531 239.234 95.0117 238.668 93.9805 237.535C92.9492 236.394 92.4336 234.761 92.4336 232.636C92.4336 230.48 92.9531 228.82 93.9922 227.656C95.0391 226.484 96.5273 225.898 98.457 225.898C99.082 225.898 99.6992 225.965 100.309 226.097C100.926 226.222 101.434 226.386 101.832 226.59L101.188 228.347C100.102 227.941 99.1758 227.738 98.4102 227.738C97.1133 227.738 96.1562 228.148 95.5391 228.969C94.9219 229.781 94.6133 230.996 94.6133 232.613C94.6133 234.168 94.9219 235.359 95.5391 236.187C96.1562 237.008 97.0703 237.418 98.2812 237.418C99.4141 237.418 100.527 237.168 101.621 236.668V238.543C100.73 239.004 99.625 239.234 98.3047 239.234ZM110.152 239.234C108.223 239.234 106.707 238.652 105.605 237.488C104.512 236.316 103.965 234.707 103.965 232.66C103.965 230.597 104.477 228.957 105.5 227.738C106.523 226.511 107.906 225.898 109.648 225.898C111.266 225.898 112.555 226.422 113.516 227.469C114.477 228.508 114.957 229.918 114.957 231.699V232.976H106.145C106.184 234.437 106.555 235.547 107.258 236.304C107.961 237.062 108.957 237.441 110.246 237.441C110.934 237.441 111.586 237.383 112.203 237.265C112.82 237.14 113.543 236.902 114.371 236.551V238.402C113.66 238.707 112.992 238.922 112.367 239.047C111.742 239.172 111.004 239.234 110.152 239.234ZM109.625 227.621C108.617 227.621 107.82 227.945 107.234 228.594C106.648 229.242 106.301 230.144 106.191 231.301H112.742C112.727 230.097 112.449 229.183 111.91 228.558C111.371 227.933 110.609 227.621 109.625 227.621ZM136.906 232.566C136.906 234.48 136.344 236.023 135.219 237.195C134.102 238.367 132.543 239.031 130.543 239.187V244.765H128.48V239.187C126.512 239.023 124.961 238.355 123.828 237.183C122.695 236.011 122.129 234.472 122.129 232.566C122.129 230.613 122.691 229.062 123.816 227.914C124.941 226.758 126.52 226.101 128.551 225.945V220.765H130.543V225.945C132.52 226.14 134.074 226.824 135.207 227.996C136.34 229.168 136.906 230.691 136.906 232.566ZM124.332 232.566C124.332 235.543 125.738 237.176 128.551 237.465V227.691C127.082 227.84 126.012 228.328 125.34 229.156C124.668 229.976 124.332 231.113 124.332 232.566ZM134.727 232.566C134.727 229.636 133.332 228.019 130.543 227.715V237.465C133.332 237.16 134.727 235.527 134.727 232.566ZM148.227 239L147.816 237.172H147.723C147.082 237.976 146.441 238.523 145.801 238.812C145.168 239.094 144.367 239.234 143.398 239.234C142.133 239.234 141.141 238.902 140.422 238.238C139.703 237.574 139.344 236.636 139.344 235.426C139.344 232.816 141.402 231.449 145.52 231.324L147.699 231.242V230.48C147.699 229.504 147.488 228.785 147.066 228.324C146.645 227.855 145.969 227.621 145.039 227.621C144.359 227.621 143.715 227.722 143.105 227.926C142.504 228.129 141.938 228.355 141.406 228.605L140.762 227.023C141.41 226.679 142.117 226.41 142.883 226.215C143.648 226.019 144.406 225.922 145.156 225.922C146.711 225.922 147.867 226.265 148.625 226.953C149.383 227.64 149.762 228.734 149.762 230.234V239H148.227ZM143.879 237.535C145.059 237.535 145.984 237.219 146.656 236.586C147.336 235.945 147.676 235.039 147.676 233.867V232.707L145.777 232.789C144.301 232.844 143.223 233.078 142.543 233.492C141.871 233.906 141.535 234.558 141.535 235.449C141.535 236.121 141.738 236.636 142.145 236.996C142.559 237.355 143.137 237.535 143.879 237.535ZM155.75 226.133V233.984L155.656 236.258L155.609 236.914L162.5 226.133H165.09V239H163.121V231.418L163.156 229.789L163.215 228.242L156.371 239H153.758V226.133H155.75ZM159.383 224.457C157.883 224.457 156.789 224.172 156.102 223.601C155.422 223.031 155.043 222.101 154.965 220.812H156.934C157.004 221.625 157.215 222.191 157.566 222.511C157.926 222.832 158.547 222.992 159.43 222.992C160.234 222.992 160.828 222.82 161.211 222.476C161.602 222.133 161.84 221.578 161.926 220.812H163.918C163.801 222.078 163.375 223.004 162.641 223.59C161.906 224.168 160.82 224.457 159.383 224.457ZM179 239H176.855V227.89H173.07C172.852 230.703 172.555 232.914 172.18 234.523C171.812 236.125 171.328 237.301 170.727 238.051C170.133 238.793 169.371 239.164 168.441 239.164C167.934 239.164 167.562 239.109 167.328 239V237.418C167.492 237.48 167.711 237.511 167.984 237.511C168.844 237.511 169.527 236.605 170.035 234.793C170.551 232.98 170.953 230.094 171.242 226.133H179V239ZM185.188 231.418H188.527C190.199 231.418 191.434 231.722 192.23 232.332C193.027 232.941 193.426 233.851 193.426 235.062C193.426 236.367 193.004 237.351 192.16 238.015C191.316 238.672 190.074 239 188.434 239H183.078V226.133H185.188V231.418ZM191.34 235.179C191.34 234.484 191.105 233.976 190.637 233.656C190.176 233.328 189.383 233.164 188.258 233.164H185.188V237.301H188.234C190.305 237.301 191.34 236.594 191.34 235.179ZM197.668 239H195.559V226.133H197.668V239Z" fill="#5A5A5A"/>
<path d="M77.8555 285.867H79.8711V295.277C79.8711 295.941 79.8516 296.82 79.8125 297.914C79.7734 299.008 79.7344 299.719 79.6953 300.047H79.8008L89.2227 285.867H91.625V303H89.6094V293.683C89.6094 292.871 89.6367 291.926 89.6914 290.847C89.7461 289.761 89.7852 289.058 89.8086 288.738H89.7031L80.2578 303H77.8555V285.867ZM98.5273 295.441C100.957 295.441 102.172 294.785 102.172 293.472C102.172 292.254 101.199 291.644 99.2539 291.644C98.6367 291.644 98.0625 291.703 97.5312 291.82C97 291.937 96.3633 292.152 95.6211 292.465L94.8828 290.789C96.2188 290.195 97.7148 289.898 99.3711 289.898C100.879 289.898 102.059 290.199 102.91 290.801C103.762 291.402 104.188 292.23 104.188 293.285C104.188 294.746 103.383 295.695 101.773 296.133V296.226C102.75 296.508 103.469 296.914 103.93 297.445C104.391 297.976 104.621 298.644 104.621 299.449C104.621 300.629 104.133 301.554 103.156 302.226C102.18 302.898 100.836 303.234 99.125 303.234C97.2344 303.234 95.7734 302.957 94.7422 302.402V300.504C96.1719 301.176 97.625 301.511 99.1016 301.511C100.203 301.511 101.051 301.328 101.645 300.961C102.238 300.594 102.535 300.051 102.535 299.332C102.535 298.597 102.234 298.054 101.633 297.703C101.031 297.344 100.109 297.164 98.8672 297.164H97.1328V295.441H98.5273ZM107.082 295.277C107.082 292.41 107.512 290.203 108.371 288.656C109.238 287.101 110.598 286.121 112.449 285.715C114.191 285.363 116.137 285.004 118.285 284.636L118.648 286.488L117.254 286.711C115.441 287.008 113.984 287.269 112.883 287.496C111.758 287.746 110.91 288.32 110.34 289.219C109.777 290.109 109.457 291.406 109.379 293.109H109.531C109.984 292.476 110.586 291.972 111.336 291.597C112.094 291.215 112.898 291.023 113.75 291.023C115.328 291.023 116.562 291.531 117.453 292.547C118.344 293.562 118.789 294.984 118.789 296.812C118.789 298.851 118.27 300.433 117.23 301.558C116.191 302.676 114.75 303.234 112.906 303.234C111.078 303.234 109.648 302.535 108.617 301.136C107.594 299.738 107.082 297.785 107.082 295.277ZM113.082 301.488C115.402 301.488 116.562 300 116.562 297.023C116.562 294.195 115.512 292.781 113.41 292.781C112.84 292.781 112.285 292.898 111.746 293.133C111.215 293.367 110.73 293.676 110.293 294.058C109.863 294.441 109.512 294.863 109.238 295.324C109.238 299.433 110.52 301.488 113.082 301.488ZM128.234 303.234C126.508 303.234 125.18 302.613 124.25 301.371H124.109L124.156 301.851C124.219 302.461 124.25 303.004 124.25 303.48V308.765H122.141V290.133H123.875L124.156 291.89H124.25C124.75 291.187 125.328 290.679 125.984 290.367C126.641 290.054 127.398 289.898 128.258 289.898C129.93 289.898 131.227 290.48 132.148 291.644C133.078 292.801 133.543 294.433 133.543 296.543C133.543 298.644 133.078 300.285 132.148 301.465C131.219 302.644 129.914 303.234 128.234 303.234ZM127.883 291.668C126.609 291.668 125.688 292.027 125.117 292.746C124.555 293.465 124.266 294.594 124.25 296.133V296.543C124.25 298.285 124.539 299.547 125.117 300.328C125.695 301.101 126.633 301.488 127.93 301.488C129.008 301.488 129.848 301.051 130.449 300.176C131.059 299.301 131.363 298.082 131.363 296.519C131.363 294.949 131.059 293.75 130.449 292.922C129.848 292.086 128.992 291.668 127.883 291.668ZM144.852 303L144.441 301.172H144.348C143.707 301.976 143.066 302.523 142.426 302.812C141.793 303.094 140.992 303.234 140.023 303.234C138.758 303.234 137.766 302.902 137.047 302.238C136.328 301.574 135.969 300.636 135.969 299.426C135.969 296.816 138.027 295.449 142.145 295.324L144.324 295.242V294.48C144.324 293.504 144.113 292.785 143.691 292.324C143.27 291.855 142.594 291.621 141.664 291.621C140.984 291.621 140.34 291.722 139.73 291.926C139.129 292.129 138.562 292.355 138.031 292.605L137.387 291.023C138.035 290.679 138.742 290.41 139.508 290.215C140.273 290.019 141.031 289.922 141.781 289.922C143.336 289.922 144.492 290.265 145.25 290.953C146.008 291.64 146.387 292.734 146.387 294.234V303H144.852ZM140.504 301.535C141.684 301.535 142.609 301.219 143.281 300.586C143.961 299.945 144.301 299.039 144.301 297.867V296.707L142.402 296.789C140.926 296.844 139.848 297.078 139.168 297.492C138.496 297.906 138.16 298.558 138.16 299.449C138.16 300.121 138.363 300.636 138.77 300.996C139.184 301.355 139.762 301.535 140.504 301.535ZM152.492 290.133V295.488H159.477V290.133H161.586V303H159.477V297.269H152.492V303H150.383V290.133H152.492ZM167.797 290.133V295.488H174.781V290.133H176.891V303H174.781V297.269H167.797V303H165.688V290.133H167.797ZM192.172 296.543C192.172 298.644 191.641 300.285 190.578 301.465C189.516 302.644 188.047 303.234 186.172 303.234C185.008 303.234 183.977 302.965 183.078 302.426C182.18 301.879 181.488 301.097 181.004 300.082C180.52 299.066 180.277 297.886 180.277 296.543C180.277 294.449 180.801 292.82 181.848 291.656C182.895 290.484 184.363 289.898 186.254 289.898C188.066 289.898 189.504 290.496 190.566 291.691C191.637 292.879 192.172 294.496 192.172 296.543ZM182.457 296.543C182.457 298.16 182.773 299.39 183.406 300.234C184.047 301.07 184.988 301.488 186.23 301.488C187.457 301.488 188.391 301.07 189.031 300.234C189.672 299.39 189.992 298.16 189.992 296.543C189.992 294.926 189.668 293.711 189.02 292.898C188.379 292.078 187.438 291.668 186.195 291.668C183.703 291.668 182.457 293.293 182.457 296.543ZM200.996 303.234C199.066 303.234 197.551 302.652 196.449 301.488C195.355 300.316 194.809 298.707 194.809 296.66C194.809 294.597 195.32 292.957 196.344 291.738C197.367 290.511 198.75 289.898 200.492 289.898C202.109 289.898 203.398 290.422 204.359 291.469C205.32 292.508 205.801 293.918 205.801 295.699V296.976H196.988C197.027 298.437 197.398 299.547 198.102 300.304C198.805 301.062 199.801 301.441 201.09 301.441C201.777 301.441 202.43 301.383 203.047 301.265C203.664 301.14 204.387 300.902 205.215 300.551V302.402C204.504 302.707 203.836 302.922 203.211 303.047C202.586 303.172 201.848 303.234 200.996 303.234ZM200.469 291.621C199.461 291.621 198.664 291.945 198.078 292.594C197.492 293.242 197.145 294.144 197.035 295.301H203.586C203.57 294.097 203.293 293.183 202.754 292.558C202.215 291.933 201.453 291.621 200.469 291.621Z" fill="#5A5A5A"/>
<path d="M85.168 351.519C83.3242 351.519 81.875 352.136 80.8203 353.371C79.7656 354.605 79.2383 356.293 79.2383 358.433C79.2383 360.644 79.75 362.351 80.7734 363.554C81.7969 364.75 83.2539 365.347 85.1445 365.347C86.3633 365.347 87.7344 365.121 89.2578 364.668V366.543C88.5312 366.808 87.832 366.988 87.1602 367.082C86.4883 367.183 85.7148 367.234 84.8398 367.234C82.3164 367.234 80.3711 366.469 79.0039 364.937C77.6445 363.398 76.9648 361.222 76.9648 358.41C76.9648 356.644 77.2891 355.097 77.9375 353.769C78.5938 352.441 79.543 351.418 80.7852 350.699C82.0352 349.98 83.5039 349.621 85.1914 349.621C87.0039 349.621 88.582 349.957 89.9258 350.629L89.0586 352.457C87.6914 351.832 86.3945 351.519 85.168 351.519ZM104.129 371.465H102.09V367H93.1367V371.465H91.1211V365.219H92.1523C93.1914 363.773 94 362.101 94.5781 360.203C95.1562 358.297 95.4609 356.273 95.4922 354.133H102.254V365.219H104.129V371.465ZM100.215 365.219V355.797H97.3555C97.2383 357.523 96.9023 359.258 96.3477 361C95.8008 362.734 95.1289 364.14 94.332 365.219H100.215ZM114.594 367L114.184 365.172H114.09C113.449 365.976 112.809 366.523 112.168 366.812C111.535 367.094 110.734 367.234 109.766 367.234C108.5 367.234 107.508 366.902 106.789 366.238C106.07 365.574 105.711 364.636 105.711 363.426C105.711 360.816 107.77 359.449 111.887 359.324L114.066 359.242V358.48C114.066 357.504 113.855 356.785 113.434 356.324C113.012 355.855 112.336 355.621 111.406 355.621C110.727 355.621 110.082 355.722 109.473 355.926C108.871 356.129 108.305 356.355 107.773 356.605L107.129 355.023C107.777 354.679 108.484 354.41 109.25 354.215C110.016 354.019 110.773 353.922 111.523 353.922C113.078 353.922 114.234 354.265 114.992 354.953C115.75 355.64 116.129 356.734 116.129 358.234V367H114.594ZM110.246 365.535C111.426 365.535 112.352 365.219 113.023 364.586C113.703 363.945 114.043 363.039 114.043 361.867V360.707L112.145 360.789C110.668 360.844 109.59 361.078 108.91 361.492C108.238 361.906 107.902 362.558 107.902 363.449C107.902 364.121 108.105 364.636 108.512 364.996C108.926 365.355 109.504 365.535 110.246 365.535ZM121.977 354.133V358.82C121.977 360.289 122.801 361.023 124.449 361.023C125.168 361.023 125.848 360.918 126.488 360.707C127.137 360.488 127.855 360.136 128.645 359.652V354.133H130.754V367H128.645V361.269C127.785 361.824 127.008 362.211 126.312 362.429C125.625 362.648 124.859 362.758 124.016 362.758C122.734 362.758 121.723 362.422 120.98 361.75C120.238 361.078 119.867 360.148 119.867 358.961V354.133H121.977ZM142.789 367L142.379 365.172H142.285C141.645 365.976 141.004 366.523 140.363 366.812C139.73 367.094 138.93 367.234 137.961 367.234C136.695 367.234 135.703 366.902 134.984 366.238C134.266 365.574 133.906 364.636 133.906 363.426C133.906 360.816 135.965 359.449 140.082 359.324L142.262 359.242V358.48C142.262 357.504 142.051 356.785 141.629 356.324C141.207 355.855 140.531 355.621 139.602 355.621C138.922 355.621 138.277 355.722 137.668 355.926C137.066 356.129 136.5 356.355 135.969 356.605L135.324 355.023C135.973 354.679 136.68 354.41 137.445 354.215C138.211 354.019 138.969 353.922 139.719 353.922C141.273 353.922 142.43 354.265 143.188 354.953C143.945 355.64 144.324 356.734 144.324 358.234V367H142.789ZM138.441 365.535C139.621 365.535 140.547 365.219 141.219 364.586C141.898 363.945 142.238 363.039 142.238 361.867V360.707L140.34 360.789C138.863 360.844 137.785 361.078 137.105 361.492C136.434 361.906 136.098 362.558 136.098 363.449C136.098 364.121 136.301 364.636 136.707 364.996C137.121 365.355 137.699 365.535 138.441 365.535ZM159.805 364.984C160.039 364.133 160.336 363.254 160.695 362.347L164.047 354.133H166.766V367H164.867V356.394C164.594 357.246 164.273 358.14 163.906 359.078L160.695 367H158.984L155.773 359.031C155.617 358.656 155.461 358.246 155.305 357.801C155.156 357.355 155.008 356.886 154.859 356.394V367H152.961V354.133H155.598L158.844 362.031C159.133 362.765 159.453 363.75 159.805 364.984ZM176.34 367.234C174.41 367.234 172.895 366.652 171.793 365.488C170.699 364.316 170.152 362.707 170.152 360.66C170.152 358.597 170.664 356.957 171.688 355.738C172.711 354.511 174.094 353.898 175.836 353.898C177.453 353.898 178.742 354.422 179.703 355.469C180.664 356.508 181.145 357.918 181.145 359.699V360.976H172.332C172.371 362.437 172.742 363.547 173.445 364.304C174.148 365.062 175.145 365.441 176.434 365.441C177.121 365.441 177.773 365.383 178.391 365.265C179.008 365.14 179.73 364.902 180.559 364.551V366.402C179.848 366.707 179.18 366.922 178.555 367.047C177.93 367.172 177.191 367.234 176.34 367.234ZM175.812 355.621C174.805 355.621 174.008 355.945 173.422 356.594C172.836 357.242 172.488 358.144 172.379 359.301H178.93C178.914 358.097 178.637 357.183 178.098 356.558C177.559 355.933 176.797 355.621 175.812 355.621ZM189.57 367.234C187.719 367.234 186.277 366.668 185.246 365.535C184.215 364.394 183.699 362.761 183.699 360.636C183.699 358.48 184.219 356.82 185.258 355.656C186.305 354.484 187.793 353.898 189.723 353.898C190.348 353.898 190.965 353.965 191.574 354.097C192.191 354.222 192.699 354.386 193.098 354.59L192.453 356.347C191.367 355.941 190.441 355.738 189.676 355.738C188.379 355.738 187.422 356.148 186.805 356.969C186.188 357.781 185.879 358.996 185.879 360.613C185.879 362.168 186.188 363.359 186.805 364.187C187.422 365.008 188.336 365.418 189.547 365.418C190.68 365.418 191.793 365.168 192.887 364.668V366.543C191.996 367.004 190.891 367.234 189.57 367.234ZM204.828 355.914H200.621V367H198.535V355.914H194.387V354.133H204.828V355.914ZM215.328 367L214.918 365.172H214.824C214.184 365.976 213.543 366.523 212.902 366.812C212.27 367.094 211.469 367.234 210.5 367.234C209.234 367.234 208.242 366.902 207.523 366.238C206.805 365.574 206.445 364.636 206.445 363.426C206.445 360.816 208.504 359.449 212.621 359.324L214.801 359.242V358.48C214.801 357.504 214.59 356.785 214.168 356.324C213.746 355.855 213.07 355.621 212.141 355.621C211.461 355.621 210.816 355.722 210.207 355.926C209.605 356.129 209.039 356.355 208.508 356.605L207.863 355.023C208.512 354.679 209.219 354.41 209.984 354.215C210.75 354.019 211.508 353.922 212.258 353.922C213.812 353.922 214.969 354.265 215.727 354.953C216.484 355.64 216.863 356.734 216.863 358.234V367H215.328ZM210.98 365.535C212.16 365.535 213.086 365.219 213.758 364.586C214.438 363.945 214.777 363.039 214.777 361.867V360.707L212.879 360.789C211.402 360.844 210.324 361.078 209.645 361.492C208.973 361.906 208.637 362.558 208.637 363.449C208.637 364.121 208.84 364.636 209.246 364.996C209.66 365.355 210.238 365.535 210.98 365.535Z" fill="#5A5A5A"/>
<path d="M90.9336 431H88.7773V423.008H79.9883V431H77.832V413.867H79.9883V421.109H88.7773V413.867H90.9336V431ZM103.273 431L102.863 429.172H102.77C102.129 429.976 101.488 430.523 100.848 430.812C100.215 431.094 99.4141 431.234 98.4453 431.234C97.1797 431.234 96.1875 430.902 95.4688 430.238C94.75 429.574 94.3906 428.636 94.3906 427.426C94.3906 424.816 96.4492 423.449 100.566 423.324L102.746 423.242V422.48C102.746 421.504 102.535 420.785 102.113 420.324C101.691 419.855 101.016 419.621 100.086 419.621C99.4062 419.621 98.7617 419.722 98.1523 419.926C97.5508 420.129 96.9844 420.355 96.4531 420.605L95.8086 419.023C96.457 418.679 97.1641 418.41 97.9297 418.215C98.6953 418.019 99.4531 417.922 100.203 417.922C101.758 417.922 102.914 418.265 103.672 418.953C104.43 419.64 104.809 420.734 104.809 422.234V431H103.273ZM98.9258 429.535C100.105 429.535 101.031 429.219 101.703 428.586C102.383 427.945 102.723 427.039 102.723 425.867V424.707L100.824 424.789C99.3477 424.844 98.2695 425.078 97.5898 425.492C96.918 425.906 96.582 426.558 96.582 427.449C96.582 428.121 96.7852 428.636 97.1914 428.996C97.6055 429.355 98.1836 429.535 98.9258 429.535ZM113.961 431.234C112.109 431.234 110.668 430.668 109.637 429.535C108.605 428.394 108.09 426.761 108.09 424.636C108.09 422.48 108.609 420.82 109.648 419.656C110.695 418.484 112.184 417.898 114.113 417.898C114.738 417.898 115.355 417.965 115.965 418.097C116.582 418.222 117.09 418.386 117.488 418.59L116.844 420.347C115.758 419.941 114.832 419.738 114.066 419.738C112.77 419.738 111.812 420.148 111.195 420.969C110.578 421.781 110.27 422.996 110.27 424.613C110.27 426.168 110.578 427.359 111.195 428.187C111.812 429.008 112.727 429.418 113.938 429.418C115.07 429.418 116.184 429.168 117.277 428.668V430.543C116.387 431.004 115.281 431.234 113.961 431.234ZM129.219 419.914H125.012V431H122.926V419.914H118.777V418.133H129.219V419.914ZM137.867 431.234C136.141 431.234 134.812 430.613 133.883 429.371H133.742L133.789 429.851C133.852 430.461 133.883 431.004 133.883 431.48V436.765H131.773V418.133H133.508L133.789 419.89H133.883C134.383 419.187 134.961 418.679 135.617 418.367C136.273 418.054 137.031 417.898 137.891 417.898C139.562 417.898 140.859 418.48 141.781 419.644C142.711 420.801 143.176 422.433 143.176 424.543C143.176 426.644 142.711 428.285 141.781 429.465C140.852 430.644 139.547 431.234 137.867 431.234ZM137.516 419.668C136.242 419.668 135.32 420.027 134.75 420.746C134.188 421.465 133.898 422.594 133.883 424.133V424.543C133.883 426.285 134.172 427.547 134.75 428.328C135.328 429.101 136.266 429.488 137.562 429.488C138.641 429.488 139.48 429.051 140.082 428.176C140.691 427.301 140.996 426.082 140.996 424.519C140.996 422.949 140.691 421.75 140.082 420.922C139.48 420.086 138.625 419.668 137.516 419.668ZM157.719 424.543C157.719 426.644 157.188 428.285 156.125 429.465C155.062 430.644 153.594 431.234 151.719 431.234C150.555 431.234 149.523 430.965 148.625 430.426C147.727 429.879 147.035 429.097 146.551 428.082C146.066 427.066 145.824 425.886 145.824 424.543C145.824 422.449 146.348 420.82 147.395 419.656C148.441 418.484 149.91 417.898 151.801 417.898C153.613 417.898 155.051 418.496 156.113 419.691C157.184 420.879 157.719 422.496 157.719 424.543ZM148.004 424.543C148.004 426.16 148.32 427.39 148.953 428.234C149.594 429.07 150.535 429.488 151.777 429.488C153.004 429.488 153.938 429.07 154.578 428.234C155.219 427.39 155.539 426.16 155.539 424.543C155.539 422.926 155.215 421.711 154.566 420.898C153.926 420.078 152.984 419.668 151.742 419.668C149.25 419.668 148.004 421.293 148.004 424.543ZM163.062 418.133V425.984L162.969 428.258L162.922 428.914L169.812 418.133H172.402V431H170.434V423.418L170.469 421.789L170.527 420.242L163.684 431H161.07V418.133H163.062ZM166.695 416.457C165.195 416.457 164.102 416.172 163.414 415.601C162.734 415.031 162.355 414.101 162.277 412.812H164.246C164.316 413.625 164.527 414.191 164.879 414.511C165.238 414.832 165.859 414.992 166.742 414.992C167.547 414.992 168.141 414.82 168.523 414.476C168.914 414.133 169.152 413.578 169.238 412.812H171.23C171.113 414.078 170.688 415.004 169.953 415.59C169.219 416.168 168.133 416.457 166.695 416.457ZM184.121 418.133H186.43L180.934 424.332L186.887 431H184.438L178.625 424.472V431H176.516V418.133H178.625V424.379L184.121 418.133ZM191.211 418.133V425.984L191.117 428.258L191.07 428.914L197.961 418.133H200.551V431H198.582V423.418L198.617 421.789L198.676 420.242L191.832 431H189.219V418.133H191.211Z" fill="#5A5A5A"/>
<path d="M78.9336 495.234C78.0508 495.234 77.2734 495.117 76.6016 494.883V492.844C77.3125 493.164 78.0664 493.324 78.8633 493.324C79.6992 493.324 80.3711 493.129 80.8789 492.738C81.3945 492.347 81.8906 491.636 82.3672 490.605L75.7695 477.867H78.1367L83.0352 487.394C83.2305 487.761 83.3984 488.168 83.5391 488.613H83.6328L83.7266 488.332L84.0898 487.371L88.1914 477.867H90.4766L85.0039 490.125C84.3555 491.578 83.7656 492.636 83.2344 493.301C82.7031 493.965 82.0938 494.453 81.4062 494.765C80.7266 495.078 79.9023 495.234 78.9336 495.234ZM103.473 499.465H101.434V495H92.4805V499.465H90.4648V493.219H91.4961C92.5352 491.773 93.3438 490.101 93.9219 488.203C94.5 486.297 94.8047 484.273 94.8359 482.133H101.598V493.219H103.473V499.465ZM99.5586 493.219V483.797H96.6992C96.582 485.523 96.2461 487.258 95.6914 489C95.1445 490.734 94.4727 492.14 93.6758 493.219H99.5586ZM113.938 495L113.527 493.172H113.434C112.793 493.976 112.152 494.523 111.512 494.812C110.879 495.094 110.078 495.234 109.109 495.234C107.844 495.234 106.852 494.902 106.133 494.238C105.414 493.574 105.055 492.636 105.055 491.426C105.055 488.816 107.113 487.449 111.23 487.324L113.41 487.242V486.48C113.41 485.504 113.199 484.785 112.777 484.324C112.355 483.855 111.68 483.621 110.75 483.621C110.07 483.621 109.426 483.722 108.816 483.926C108.215 484.129 107.648 484.355 107.117 484.605L106.473 483.023C107.121 482.679 107.828 482.41 108.594 482.215C109.359 482.019 110.117 481.922 110.867 481.922C112.422 481.922 113.578 482.265 114.336 482.953C115.094 483.64 115.473 484.734 115.473 486.234V495H113.938ZM109.59 493.535C110.77 493.535 111.695 493.219 112.367 492.586C113.047 491.945 113.387 491.039 113.387 489.867V488.707L111.488 488.789C110.012 488.844 108.934 489.078 108.254 489.492C107.582 489.906 107.246 490.558 107.246 491.449C107.246 492.121 107.449 492.636 107.855 492.996C108.27 493.355 108.848 493.535 109.59 493.535ZM129.266 495H127.121V483.89H123.336C123.117 486.703 122.82 488.914 122.445 490.523C122.078 492.125 121.594 493.301 120.992 494.051C120.398 494.793 119.637 495.164 118.707 495.164C118.199 495.164 117.828 495.109 117.594 495V493.418C117.758 493.48 117.977 493.511 118.25 493.511C119.109 493.511 119.793 492.605 120.301 490.793C120.816 488.98 121.219 486.094 121.508 482.133H129.266V495ZM138.816 495.234C136.887 495.234 135.371 494.652 134.27 493.488C133.176 492.316 132.629 490.707 132.629 488.66C132.629 486.597 133.141 484.957 134.164 483.738C135.188 482.511 136.57 481.898 138.312 481.898C139.93 481.898 141.219 482.422 142.18 483.469C143.141 484.508 143.621 485.918 143.621 487.699V488.976H134.809C134.848 490.437 135.219 491.547 135.922 492.304C136.625 493.062 137.621 493.441 138.91 493.441C139.598 493.441 140.25 493.383 140.867 493.265C141.484 493.14 142.207 492.902 143.035 492.551V494.402C142.324 494.707 141.656 494.922 141.031 495.047C140.406 495.172 139.668 495.234 138.816 495.234ZM138.289 483.621C137.281 483.621 136.484 483.945 135.898 484.594C135.312 485.242 134.965 486.144 134.855 487.301H141.406C141.391 486.097 141.113 485.183 140.574 484.558C140.035 483.933 139.273 483.621 138.289 483.621ZM149 482.133V487.488H155.984V482.133H158.094V495H155.984V489.269H149V495H146.891V482.133H149ZM164.305 482.133V487.488H171.289V482.133H173.398V495H171.289V489.269H164.305V495H162.195V482.133H164.305ZM179.609 487.418H182.949C184.621 487.418 185.855 487.722 186.652 488.332C187.449 488.941 187.848 489.851 187.848 491.062C187.848 492.367 187.426 493.351 186.582 494.015C185.738 494.672 184.496 495 182.855 495H177.5V482.133H179.609V487.418ZM185.762 491.179C185.762 490.484 185.527 489.976 185.059 489.656C184.598 489.328 183.805 489.164 182.68 489.164H179.609V493.301H182.656C184.727 493.301 185.762 492.594 185.762 491.179ZM192.09 495H189.98V482.133H192.09V495ZM201.652 495.234C199.723 495.234 198.207 494.652 197.105 493.488C196.012 492.316 195.465 490.707 195.465 488.66C195.465 486.597 195.977 484.957 197 483.738C198.023 482.511 199.406 481.898 201.148 481.898C202.766 481.898 204.055 482.422 205.016 483.469C205.977 484.508 206.457 485.918 206.457 487.699V488.976H197.645C197.684 490.437 198.055 491.547 198.758 492.304C199.461 493.062 200.457 493.441 201.746 493.441C202.434 493.441 203.086 493.383 203.703 493.265C204.32 493.14 205.043 492.902 205.871 492.551V494.402C205.16 494.707 204.492 494.922 203.867 495.047C203.242 495.172 202.504 495.234 201.652 495.234ZM201.125 483.621C200.117 483.621 199.32 483.945 198.734 484.594C198.148 485.242 197.801 486.144 197.691 487.301H204.242C204.227 486.097 203.949 485.183 203.41 484.558C202.871 483.933 202.109 483.621 201.125 483.621ZM228.406 488.566C228.406 490.48 227.844 492.023 226.719 493.195C225.602 494.367 224.043 495.031 222.043 495.187V500.765H219.98V495.187C218.012 495.023 216.461 494.355 215.328 493.183C214.195 492.011 213.629 490.472 213.629 488.566C213.629 486.613 214.191 485.062 215.316 483.914C216.441 482.758 218.02 482.101 220.051 481.945V476.765H222.043V481.945C224.02 482.14 225.574 482.824 226.707 483.996C227.84 485.168 228.406 486.691 228.406 488.566ZM215.832 488.566C215.832 491.543 217.238 493.176 220.051 493.465V483.691C218.582 483.84 217.512 484.328 216.84 485.156C216.168 485.976 215.832 487.113 215.832 488.566ZM226.227 488.566C226.227 485.636 224.832 484.019 222.043 483.715V493.465C224.832 493.16 226.227 491.527 226.227 488.566ZM239.727 495L239.316 493.172H239.223C238.582 493.976 237.941 494.523 237.301 494.812C236.668 495.094 235.867 495.234 234.898 495.234C233.633 495.234 232.641 494.902 231.922 494.238C231.203 493.574 230.844 492.636 230.844 491.426C230.844 488.816 232.902 487.449 237.02 487.324L239.199 487.242V486.48C239.199 485.504 238.988 484.785 238.566 484.324C238.145 483.855 237.469 483.621 236.539 483.621C235.859 483.621 235.215 483.722 234.605 483.926C234.004 484.129 233.438 484.355 232.906 484.605L232.262 483.023C232.91 482.679 233.617 482.41 234.383 482.215C235.148 482.019 235.906 481.922 236.656 481.922C238.211 481.922 239.367 482.265 240.125 482.953C240.883 483.64 241.262 484.734 241.262 486.234V495H239.727ZM235.379 493.535C236.559 493.535 237.484 493.219 238.156 492.586C238.836 491.945 239.176 491.039 239.176 489.867V488.707L237.277 488.789C235.801 488.844 234.723 489.078 234.043 489.492C233.371 489.906 233.035 490.558 233.035 491.449C233.035 492.121 233.238 492.636 233.645 492.996C234.059 493.355 234.637 493.535 235.379 493.535ZM247.25 482.133V489.984L247.156 492.258L247.109 492.914L254 482.133H256.59V495H254.621V487.418L254.656 485.789L254.715 484.242L247.871 495H245.258V482.133H247.25ZM250.883 480.457C249.383 480.457 248.289 480.172 247.602 479.601C246.922 479.031 246.543 478.101 246.465 476.812H248.434C248.504 477.625 248.715 478.191 249.066 478.511C249.426 478.832 250.047 478.992 250.93 478.992C251.734 478.992 252.328 478.82 252.711 478.476C253.102 478.133 253.34 477.578 253.426 476.812H255.418C255.301 478.078 254.875 479.004 254.141 479.59C253.406 480.168 252.32 480.457 250.883 480.457ZM270.5 495H268.355V483.89H264.57C264.352 486.703 264.055 488.914 263.68 490.523C263.312 492.125 262.828 493.301 262.227 494.051C261.633 494.793 260.871 495.164 259.941 495.164C259.434 495.164 259.062 495.109 258.828 495V493.418C258.992 493.48 259.211 493.511 259.484 493.511C260.344 493.511 261.027 492.605 261.535 490.793C262.051 488.98 262.453 486.094 262.742 482.133H270.5V495ZM276.688 487.418H280.027C281.699 487.418 282.934 487.722 283.73 488.332C284.527 488.941 284.926 489.851 284.926 491.062C284.926 492.367 284.504 493.351 283.66 494.015C282.816 494.672 281.574 495 279.934 495H274.578V482.133H276.688V487.418ZM282.84 491.179C282.84 490.484 282.605 489.976 282.137 489.656C281.676 489.328 280.883 489.164 279.758 489.164H276.688V493.301H279.734C281.805 493.301 282.84 492.594 282.84 491.179ZM289.168 495H287.059V482.133H289.168V495Z" fill="#5A5A5A"/>
<path d="M90.6875 559H88.5547V543.765H79.9883V559H77.832V541.867H90.6875V559ZM106.273 552.543C106.273 554.644 105.742 556.285 104.68 557.465C103.617 558.644 102.148 559.234 100.273 559.234C99.1094 559.234 98.0781 558.965 97.1797 558.426C96.2812 557.879 95.5898 557.097 95.1055 556.082C94.6211 555.066 94.3789 553.886 94.3789 552.543C94.3789 550.449 94.9023 548.82 95.9492 547.656C96.9961 546.484 98.4648 545.898 100.355 545.898C102.168 545.898 103.605 546.496 104.668 547.691C105.738 548.879 106.273 550.496 106.273 552.543ZM96.5586 552.543C96.5586 554.16 96.875 555.39 97.5078 556.234C98.1484 557.07 99.0898 557.488 100.332 557.488C101.559 557.488 102.492 557.07 103.133 556.234C103.773 555.39 104.094 554.16 104.094 552.543C104.094 550.926 103.77 549.711 103.121 548.898C102.48 548.078 101.539 547.668 100.297 547.668C97.8047 547.668 96.5586 549.293 96.5586 552.543ZM121.051 563.465H119.012V559H110.059V563.465H108.043V557.219H109.074C110.113 555.773 110.922 554.101 111.5 552.203C112.078 550.297 112.383 548.273 112.414 546.133H119.176V557.219H121.051V563.465ZM117.137 557.219V547.797H114.277C114.16 549.523 113.824 551.258 113.27 553C112.723 554.734 112.051 556.14 111.254 557.219H117.137ZM125.68 559H123.57V546.133H134.445V559H132.336V547.937H125.68V559ZM140.539 546.133V553.984L140.445 556.258L140.398 556.914L147.289 546.133H149.879V559H147.91V551.418L147.945 549.789L148.004 548.242L141.16 559H138.547V546.133H140.539ZM159.148 559.234C157.297 559.234 155.855 558.668 154.824 557.535C153.793 556.394 153.277 554.761 153.277 552.636C153.277 550.48 153.797 548.82 154.836 547.656C155.883 546.484 157.371 545.898 159.301 545.898C159.926 545.898 160.543 545.965 161.152 546.097C161.77 546.222 162.277 546.386 162.676 546.59L162.031 548.347C160.945 547.941 160.02 547.738 159.254 547.738C157.957 547.738 157 548.148 156.383 548.969C155.766 549.781 155.457 550.996 155.457 552.613C155.457 554.168 155.766 555.359 156.383 556.187C157 557.008 157.914 557.418 159.125 557.418C160.258 557.418 161.371 557.168 162.465 556.668V558.543C161.574 559.004 160.469 559.234 159.148 559.234ZM173.129 546.133H175.438L169.941 552.332L175.895 559H173.445L167.633 552.472V559H165.523V546.133H167.633V552.379L173.129 546.133ZM186.172 559L185.762 557.172H185.668C185.027 557.976 184.387 558.523 183.746 558.812C183.113 559.094 182.312 559.234 181.344 559.234C180.078 559.234 179.086 558.902 178.367 558.238C177.648 557.574 177.289 556.636 177.289 555.426C177.289 552.816 179.348 551.449 183.465 551.324L185.645 551.242V550.48C185.645 549.504 185.434 548.785 185.012 548.324C184.59 547.855 183.914 547.621 182.984 547.621C182.305 547.621 181.66 547.722 181.051 547.926C180.449 548.129 179.883 548.355 179.352 548.605L178.707 547.023C179.355 546.679 180.062 546.41 180.828 546.215C181.594 546.019 182.352 545.922 183.102 545.922C184.656 545.922 185.812 546.265 186.57 546.953C187.328 547.64 187.707 548.734 187.707 550.234V559H186.172ZM181.824 557.535C183.004 557.535 183.93 557.219 184.602 556.586C185.281 555.945 185.621 555.039 185.621 553.867V552.707L183.723 552.789C182.246 552.844 181.168 553.078 180.488 553.492C179.816 553.906 179.48 554.558 179.48 555.449C179.48 556.121 179.684 556.636 180.09 556.996C180.504 557.355 181.082 557.535 181.824 557.535ZM196.057 563.116V546.844H197.329C197.633 546.844 197.825 546.992 197.905 547.288L198.085 548.728C198.605 548.096 199.197 547.588 199.861 547.204C200.533 546.82 201.305 546.628 202.177 546.628C202.873 546.628 203.505 546.764 204.073 547.036C204.641 547.3 205.125 547.696 205.525 548.224C205.925 548.744 206.233 549.392 206.449 550.168C206.665 550.944 206.773 551.836 206.773 552.844C206.773 553.74 206.653 554.576 206.413 555.352C206.173 556.12 205.829 556.788 205.381 557.356C204.933 557.916 204.381 558.36 203.725 558.688C203.077 559.008 202.345 559.168 201.529 559.168C200.777 559.168 200.133 559.044 199.597 558.796C199.069 558.548 198.601 558.196 198.193 557.74V563.116H196.057ZM201.469 548.356C200.773 548.356 200.161 548.516 199.633 548.836C199.113 549.156 198.633 549.608 198.193 550.192V556.072C198.585 556.6 199.013 556.972 199.477 557.188C199.949 557.404 200.473 557.512 201.049 557.512C202.177 557.512 203.045 557.108 203.653 556.3C204.261 555.492 204.565 554.34 204.565 552.844C204.565 552.052 204.493 551.372 204.349 550.804C204.213 550.236 204.013 549.772 203.749 549.412C203.485 549.044 203.161 548.776 202.777 548.608C202.393 548.44 201.957 548.356 201.469 548.356ZM209.299 559V546.844H210.523C210.755 546.844 210.915 546.888 211.003 546.976C211.091 547.064 211.151 547.216 211.183 547.432L211.327 549.328C211.743 548.48 212.255 547.82 212.863 547.348C213.479 546.868 214.199 546.628 215.023 546.628C215.359 546.628 215.663 546.668 215.935 546.748C216.207 546.82 216.459 546.924 216.691 547.06L216.415 548.656C216.359 548.856 216.235 548.956 216.043 548.956C215.931 548.956 215.759 548.92 215.527 548.848C215.295 548.768 214.971 548.728 214.555 548.728C213.811 548.728 213.187 548.944 212.683 549.376C212.187 549.808 211.771 550.436 211.435 551.26V559H209.299ZM223.791 546.652C224.519 546.652 225.191 546.776 225.807 547.024C226.423 547.264 226.955 547.616 227.403 548.08C227.851 548.536 228.199 549.104 228.447 549.784C228.703 550.456 228.831 551.224 228.831 552.088C228.831 552.424 228.795 552.648 228.723 552.76C228.651 552.872 228.515 552.928 228.315 552.928H220.227C220.243 553.696 220.347 554.364 220.539 554.932C220.731 555.5 220.995 555.976 221.331 556.36C221.667 556.736 222.067 557.02 222.531 557.212C222.995 557.396 223.515 557.488 224.091 557.488C224.627 557.488 225.087 557.428 225.471 557.308C225.863 557.18 226.199 557.044 226.479 556.9C226.759 556.756 226.991 556.624 227.175 556.504C227.367 556.376 227.531 556.312 227.667 556.312C227.843 556.312 227.979 556.38 228.075 556.516L228.675 557.296C228.411 557.616 228.095 557.896 227.727 558.136C227.359 558.368 226.963 558.56 226.539 558.712C226.123 558.864 225.691 558.976 225.243 559.048C224.795 559.128 224.351 559.168 223.911 559.168C223.071 559.168 222.295 559.028 221.583 558.748C220.879 558.46 220.267 558.044 219.747 557.5C219.235 556.948 218.835 556.268 218.547 555.46C218.259 554.652 218.115 553.724 218.115 552.676C218.115 551.828 218.243 551.036 218.499 550.3C218.763 549.564 219.139 548.928 219.627 548.392C220.115 547.848 220.711 547.424 221.415 547.12C222.119 546.808 222.911 546.652 223.791 546.652ZM223.839 548.224C222.807 548.224 221.995 548.524 221.403 549.124C220.811 549.716 220.443 550.54 220.299 551.596H226.911C226.911 551.1 226.843 550.648 226.707 550.24C226.571 549.824 226.371 549.468 226.107 549.172C225.843 548.868 225.519 548.636 225.135 548.476C224.759 548.308 224.327 548.224 223.839 548.224ZM231.565 559V546.844H232.837C233.141 546.844 233.333 546.992 233.413 547.288L233.569 548.536C234.017 547.984 234.517 547.532 235.069 547.18C235.629 546.828 236.277 546.652 237.013 546.652C237.837 546.652 238.501 546.88 239.005 547.336C239.517 547.792 239.885 548.408 240.109 549.184C240.277 548.744 240.497 548.364 240.769 548.044C241.049 547.724 241.361 547.46 241.705 547.252C242.049 547.044 242.413 546.892 242.797 546.796C243.189 546.7 243.585 546.652 243.985 546.652C244.625 546.652 245.193 546.756 245.689 546.964C246.193 547.164 246.617 547.46 246.961 547.852C247.313 548.244 247.581 548.728 247.765 549.304C247.949 549.872 248.041 550.524 248.041 551.26V559H245.905V551.26C245.905 550.308 245.697 549.588 245.281 549.1C244.865 548.604 244.261 548.356 243.469 548.356C243.117 548.356 242.781 548.42 242.461 548.548C242.149 548.668 241.873 548.848 241.633 549.088C241.393 549.328 241.201 549.632 241.057 550C240.921 550.36 240.853 550.78 240.853 551.26V559H238.717V551.26C238.717 550.284 238.521 549.556 238.129 549.076C237.737 548.596 237.165 548.356 236.413 548.356C235.885 548.356 235.393 548.5 234.937 548.788C234.489 549.068 234.077 549.452 233.701 549.94V559H231.565ZM253.651 546.844V559H251.515V546.844H253.651ZM254.131 543.028C254.131 543.236 254.087 543.432 253.999 543.616C253.919 543.792 253.807 543.952 253.663 544.096C253.527 544.232 253.367 544.34 253.183 544.42C252.999 544.5 252.803 544.54 252.595 544.54C252.387 544.54 252.191 544.5 252.007 544.42C251.831 544.34 251.671 544.232 251.527 544.096C251.391 543.952 251.283 543.792 251.203 543.616C251.123 543.432 251.083 543.236 251.083 543.028C251.083 542.82 251.123 542.624 251.203 542.44C251.283 542.248 251.391 542.084 251.527 541.948C251.671 541.804 251.831 541.692 252.007 541.612C252.191 541.532 252.387 541.492 252.595 541.492C252.803 541.492 252.999 541.532 253.183 541.612C253.367 541.692 253.527 541.804 253.663 541.948C253.807 542.084 253.919 542.248 253.999 542.44C254.087 542.624 254.131 542.82 254.131 543.028ZM259.264 546.844V554.596C259.264 555.516 259.476 556.228 259.9 556.732C260.324 557.236 260.964 557.488 261.82 557.488C262.444 557.488 263.032 557.34 263.584 557.044C264.136 556.748 264.644 556.336 265.108 555.808V546.844H267.244V559H265.972C265.668 559 265.476 558.852 265.396 558.556L265.228 557.248C264.7 557.832 264.108 558.304 263.452 558.664C262.796 559.016 262.044 559.192 261.196 559.192C260.532 559.192 259.944 559.084 259.432 558.868C258.928 558.644 258.504 558.332 258.16 557.932C257.816 557.532 257.556 557.048 257.38 556.48C257.212 555.912 257.128 555.284 257.128 554.596V546.844H259.264ZM270.752 559V546.844H272.024C272.328 546.844 272.52 546.992 272.6 547.288L272.756 548.536C273.204 547.984 273.704 547.532 274.256 547.18C274.816 546.828 275.464 546.652 276.2 546.652C277.024 546.652 277.688 546.88 278.192 547.336C278.704 547.792 279.072 548.408 279.296 549.184C279.464 548.744 279.684 548.364 279.956 548.044C280.236 547.724 280.548 547.46 280.892 547.252C281.236 547.044 281.6 546.892 281.984 546.796C282.376 546.7 282.772 546.652 283.172 546.652C283.812 546.652 284.38 546.756 284.876 546.964C285.38 547.164 285.804 547.46 286.148 547.852C286.5 548.244 286.768 548.728 286.952 549.304C287.136 549.872 287.228 550.524 287.228 551.26V559H285.092V551.26C285.092 550.308 284.884 549.588 284.468 549.1C284.052 548.604 283.448 548.356 282.656 548.356C282.304 548.356 281.968 548.42 281.648 548.548C281.336 548.668 281.06 548.848 280.82 549.088C280.58 549.328 280.388 549.632 280.244 550C280.108 550.36 280.04 550.78 280.04 551.26V559H277.904V551.26C277.904 550.284 277.708 549.556 277.316 549.076C276.924 548.596 276.352 548.356 275.6 548.356C275.072 548.356 274.58 548.5 274.124 548.788C273.676 549.068 273.264 549.452 272.888 549.94V559H270.752Z" fill="#5A5A5A"/>
<path d="M31.5 222.5V221C31.5 219.895 32.3954 219 33.5 219H39.7759C40.2438 219 40.6968 219.164 41.0563 219.463L42.9437 221.036C43.3032 221.336 43.7562 221.5 44.2241 221.5H53.5C54.6046 221.5 55.5 222.395 55.5 223.5V234.5C55.5 235.604 54.6046 236.5 53.5 236.5H52" stroke="#5A5A5A" stroke-width="1.8" stroke-linecap="round" stroke-linejoin="round"/>
<path d="M28 238V224.5C28 223.395 28.8954 222.5 30 222.5H36.2759C36.7438 222.5 37.1968 222.664 37.5563 222.963L39.4437 224.536C39.8032 224.836 40.2562 225 40.7241 225H50C51.1046 225 52 225.895 52 227V238C52 239.104 51.1046 240 50 240H30C28.8954 240 28 239.104 28 238Z" stroke="#5A5A5A" stroke-width="1.8" stroke-linecap="round" stroke-linejoin="round"/>
<path d="M29 162.957L41.0507 153.919C41.774 153.377 42.7713 153.387 43.4833 153.944L55 162.957M32.3191 166.677V176.021C32.3191 177.126 33.2146 178.021 34.3191 178.021H36.9574C38.062 178.021 38.9574 177.126 38.9574 176.021V171.538C38.9574 170.434 39.8529 169.538 40.9574 169.538H43.5957C44.7003 169.538 45.5957 170.434 45.5957 171.538V176.021C45.5957 177.126 46.4912 178.021 47.5957 178.021H50.234C51.3386 178.021 52.234 177.126 52.234 176.021V166.677" stroke="#5A5A5A" stroke-width="2" stroke-linecap="round" stroke-linejoin="round"/>
<path d="M32.5 480.5L33.8509 497.161C33.9351 498.2 34.8025 499 35.8444 499H47.1556C48.1975 499 49.0649 498.2 49.1491 497.161L50.5 480.5M31 477H37.5M52 477H45.5M37.5 477H41.5H45.5M37.5 477V476C37.5 474.895 38.3954 474 39.5 474H43.5C44.6046 474 45.5 474.895 45.5 476V477M38 482L38.5 495M45 482L44.5 495" stroke="#5A5A5A" stroke-width="1.8" stroke-linecap="round" stroke-linejoin="round"/>
<path d="M35.8071 546.872H29.7677C29.4581 546.872 29.1789 546.686 29.0595 546.401C28.9401 546.115 29.0037 545.786 29.2211 545.565L35.3372 539.364C35.4815 539.218 35.6784 539.135 35.8839 539.135H38.9035C39.1695 539.135 39.4166 539.273 39.5565 539.499C39.6964 539.726 39.7092 540.008 39.5903 540.246L36.4939 546.447C36.3639 546.708 36.098 546.872 35.8071 546.872Z" fill="#A0EBFF"/>
<path d="M54.2317 546.872H48.1923C47.9013 546.872 47.6354 546.708 47.5054 546.447L44.409 540.246C44.2902 540.008 44.303 539.726 44.4429 539.499C44.5827 539.273 44.8299 539.135 45.0958 539.135H48.1155C48.3209 539.135 48.5178 539.218 48.6621 539.364L54.7782 545.565C54.9956 545.786 55.0593 546.115 54.9399 546.401C54.8205 546.686 54.5412 546.872 54.2317 546.872Z" fill="#73C8F0"/>
<path d="M34.9482 546.084L38.9031 539.135H45.0961L49.0388 546.084H34.9482Z" fill="#D2F0FF"/>
<path d="M47.3625 546.084L41.2982 559.785C41.1446 560.132 41.2676 560.539 41.5876 560.743C41.7148 560.824 41.8579 560.864 41.9999 560.864C42.2151 560.864 42.4278 560.773 42.5782 560.601L54.8105 546.61C54.9398 546.462 55.0044 546.273 54.9995 546.084H47.3625V546.084Z" fill="#0073AA"/>
<path d="M36.6383 546.084H29.0012C28.9964 546.274 29.061 546.462 29.1902 546.61L41.4225 560.602C41.573 560.774 41.7856 560.864 42.0009 560.864C42.1428 560.864 42.286 560.825 42.4131 560.744C42.7331 560.54 42.8561 560.133 42.7025 559.786L36.6383 546.084Z" fill="#41B4E6"/>
<path d="M34.9482 546.084L41.2976 560.407C41.4206 560.685 41.6958 560.864 41.9996 560.864C42.3035 560.864 42.5787 560.685 42.7016 560.407L49.0389 546.084H34.9482Z" fill="#A0EBFF"/>
<path d="M41.9941 546.084H49.0394L45.0966 539.135H41.9941V546.084Z" fill="#41B4E6"/>
<path d="M42 560.864C42.3038 560.864 42.5791 560.685 42.702 560.407L49.0392 546.084H42V560.864Z" fill="#73C8F0"/>
<path d="M37.7015 289.058L40.8665 283.519C41.2503 282.847 42.219 282.847 42.6029 283.519L45.7638 289.051C45.9014 289.292 46.1329 289.464 46.403 289.528L53.2526 291.14C54.0152 291.319 54.2847 292.266 53.7306 292.82L48.9785 297.572C48.7603 297.79 48.655 298.097 48.6933 298.403L49.4695 304.613C49.567 305.393 48.767 305.975 48.0543 305.643L42.1576 302.891C41.8895 302.766 41.5799 302.766 41.3118 302.891L35.4151 305.643C34.7024 305.975 33.9024 305.393 33.9999 304.613L34.7794 298.377C34.8158 298.086 34.7225 297.793 34.5243 297.577L30.1352 292.789C29.623 292.23 29.8945 291.327 30.6298 291.143L37.0758 289.532C37.3403 289.466 37.5663 289.295 37.7015 289.058Z" stroke="#5A5A5A" stroke-width="2" stroke-linejoin="round"/>
<path d="M36.7127 364.677C28.2125 366.677 26.2855 358.074 33.2127 356.177C33.8556 344.708 48.2126 346.177 49.713 355.177C56.1192 357.5 54.7126 366.177 45.7126 364.677" stroke="#5A5A5A" stroke-width="1.8" stroke-linecap="round" stroke-linejoin="round"/>
<path d="M41.2129 358.177V367.677M41.2129 358.177L38.2129 361.177M41.2129 358.177L44.2129 361.177" stroke="#5A5A5A" stroke-width="1.8" stroke-linecap="round" stroke-linejoin="round"/>
<path d="M32.7157 413.602C33.4972 416.33 32.491 417.882 29.9084 418.437C29.6556 418.491 29.4231 418.628 29.2734 418.839C27.607 421.187 27.5509 422.597 29.2542 425.063C29.4144 425.295 29.6734 425.439 29.9517 425.484C32.6702 425.921 33.1747 427.484 32.6556 429.916C32.6146 430.108 32.6242 430.309 32.6949 430.493C33.7071 433.121 34.7665 433.848 37.743 433.926C38.05 433.934 38.341 433.788 38.5422 433.556C40.4481 431.358 41.985 431.586 43.5659 433.534C43.7654 433.779 44.061 433.936 44.3775 433.929C47.1811 433.867 48.3699 433.082 49.4141 430.471C49.4819 430.301 49.4972 430.116 49.4671 429.936C49.0054 427.174 49.5272 425.908 52.1385 425.487C52.4251 425.441 52.6893 425.287 52.8462 425.042C54.4298 422.575 54.4272 420.991 52.7836 418.764C52.6617 418.599 52.4874 418.48 52.2926 418.416C49.4402 417.472 48.7891 416.302 49.4203 413.58C49.4777 413.332 49.4487 413.069 49.3217 412.849C48.0529 410.65 46.8853 410.011 44.3351 410C44.0427 409.999 43.7682 410.138 43.5718 410.355C41.774 412.338 40.1515 412.181 38.5538 410.389C38.3437 410.153 38.0434 410.008 37.7282 410.026C34.8526 410.188 33.8093 410.987 32.7899 412.82C32.658 413.057 32.641 413.341 32.7157 413.602Z" stroke="#5A5A5A" stroke-width="1.8" stroke-linecap="round" stroke-linejoin="round"/>
<circle cx="40.9718" cy="421.754" r="3.70164" stroke="#5A5A5A" stroke-width="1.8"/>
<path d="M128.696 67.5358C129.645 67.5358 130.493 67.3758 131.24 67.0558C131.987 66.7358 132.616 66.2878 133.128 65.7118C133.651 65.1358 134.045 64.4478 134.312 63.6478C134.589 62.8478 134.728 61.9678 134.728 61.0078V47.0718H137.816V61.0078C137.816 62.3304 137.603 63.5571 137.176 64.6878C136.76 65.8184 136.157 66.7998 135.368 67.6318C134.589 68.4531 133.635 69.0984 132.504 69.5678C131.373 70.0371 130.104 70.2718 128.696 70.2718C127.288 70.2718 126.019 70.0371 124.888 69.5678C123.757 69.0984 122.797 68.4531 122.008 67.6318C121.219 66.7998 120.611 65.8184 120.184 64.6878C119.768 63.5571 119.56 62.3304 119.56 61.0078V47.0718H122.648V60.9918C122.648 61.9518 122.781 62.8318 123.048 63.6318C123.325 64.4318 123.72 65.1198 124.232 65.6958C124.755 66.2718 125.389 66.7251 126.136 67.0558C126.893 67.3758 127.747 67.5358 128.696 67.5358ZM146.567 61.4238V69.9998H143.479V47.0718H150.247C151.698 47.0718 152.956 47.2424 154.023 47.5838C155.1 47.9144 155.991 48.3891 156.695 49.0078C157.399 49.6264 157.922 50.3731 158.263 51.2478C158.615 52.1224 158.791 53.0984 158.791 54.1758C158.791 55.2424 158.604 56.2184 158.231 57.1038C157.858 57.9891 157.308 58.7518 156.583 59.3918C155.868 60.0318 154.978 60.5331 153.911 60.8958C152.844 61.2478 151.623 61.4238 150.247 61.4238H146.567ZM146.567 58.9598H150.247C151.132 58.9598 151.911 58.8424 152.583 58.6078C153.266 58.3731 153.836 58.0478 154.295 57.6318C154.754 57.2051 155.1 56.6984 155.335 56.1118C155.57 55.5251 155.687 54.8798 155.687 54.1758C155.687 52.7144 155.234 51.5731 154.327 50.7518C153.431 49.9304 152.071 49.5198 150.247 49.5198H146.567V58.9598ZM174.466 50.6558C174.37 50.8158 174.268 50.9384 174.162 51.0238C174.055 51.0984 173.916 51.1358 173.746 51.1358C173.564 51.1358 173.351 51.0451 173.106 50.8638C172.871 50.6824 172.567 50.4851 172.194 50.2718C171.831 50.0478 171.388 49.8451 170.866 49.6638C170.354 49.4824 169.73 49.3918 168.994 49.3918C168.3 49.3918 167.687 49.4878 167.154 49.6798C166.62 49.8611 166.172 50.1118 165.81 50.4318C165.458 50.7518 165.191 51.1304 165.01 51.5678C164.828 51.9944 164.738 52.4584 164.738 52.9598C164.738 53.5998 164.892 54.1331 165.202 54.5598C165.522 54.9758 165.938 55.3331 166.45 55.6318C166.972 55.9304 167.559 56.1918 168.21 56.4158C168.871 56.6291 169.543 56.8531 170.226 57.0878C170.919 57.3224 171.591 57.5891 172.242 57.8878C172.903 58.1758 173.49 58.5438 174.002 58.9918C174.524 59.4398 174.94 59.9891 175.25 60.6398C175.57 61.2904 175.73 62.0904 175.73 63.0398C175.73 64.0424 175.559 64.9864 175.218 65.8718C174.876 66.7464 174.375 67.5091 173.714 68.1598C173.063 68.8104 172.258 69.3224 171.298 69.6958C170.348 70.0691 169.266 70.2558 168.05 70.2558C166.567 70.2558 165.212 69.9891 163.986 69.4558C162.77 68.9118 161.73 68.1811 160.866 67.2638L161.762 65.7918C161.847 65.6744 161.948 65.5784 162.066 65.5038C162.194 65.4184 162.332 65.3758 162.482 65.3758C162.706 65.3758 162.962 65.4984 163.25 65.7438C163.538 65.9784 163.895 66.2398 164.322 66.5278C164.759 66.8158 165.282 67.0824 165.89 67.3278C166.508 67.5624 167.26 67.6798 168.146 67.6798C168.882 67.6798 169.538 67.5784 170.114 67.3758C170.69 67.1731 171.175 66.8904 171.57 66.5278C171.975 66.1544 172.284 65.7118 172.498 65.1998C172.711 64.6878 172.818 64.1171 172.818 63.4878C172.818 62.7944 172.658 62.2291 172.338 61.7918C172.028 61.3438 171.618 60.9704 171.106 60.6718C170.594 60.3731 170.007 60.1224 169.345 59.9198C168.695 59.7064 168.023 59.4931 167.33 59.2798C166.647 59.0558 165.975 58.7998 165.314 58.5118C164.663 58.2238 164.082 57.8504 163.57 57.3918C163.058 56.9331 162.642 56.3624 162.322 55.6798C162.012 54.9864 161.858 54.1331 161.858 53.1198C161.858 52.3091 162.012 51.5251 162.322 50.7678C162.642 50.0104 163.1 49.3384 163.698 48.7518C164.295 48.1651 165.031 47.6958 165.906 47.3438C166.791 46.9918 167.804 46.8158 168.946 46.8158C170.226 46.8158 171.394 47.0184 172.45 47.4238C173.506 47.8291 174.428 48.4158 175.218 49.1838L174.466 50.6558ZM195.306 47.0718V49.6798H187.898V69.9998H184.794V49.6798H177.354V47.0718H195.306ZM218.299 58.5438C218.299 60.2611 218.027 61.8398 217.483 63.2798C216.939 64.7091 216.171 65.9411 215.179 66.9758C214.187 68.0104 212.992 68.8158 211.595 69.3918C210.208 69.9571 208.672 70.2398 206.987 70.2398C205.301 70.2398 203.765 69.9571 202.379 69.3918C200.992 68.8158 199.803 68.0104 198.811 66.9758C197.819 65.9411 197.051 64.7091 196.507 63.2798C195.963 61.8398 195.691 60.2611 195.691 58.5438C195.691 56.8264 195.963 55.2531 196.507 53.8238C197.051 52.3838 197.819 51.1464 198.811 50.1118C199.803 49.0664 200.992 48.2558 202.379 47.6798C203.765 47.1038 205.301 46.8158 206.987 46.8158C208.672 46.8158 210.208 47.1038 211.595 47.6798C212.992 48.2558 214.187 49.0664 215.179 50.1118C216.171 51.1464 216.939 52.3838 217.483 53.8238C218.027 55.2531 218.299 56.8264 218.299 58.5438ZM215.115 58.5438C215.115 57.1358 214.923 55.8718 214.539 54.7518C214.155 53.6318 213.611 52.6878 212.907 51.9198C212.203 51.1411 211.349 50.5438 210.347 50.1278C209.344 49.7118 208.224 49.5038 206.987 49.5038C205.76 49.5038 204.645 49.7118 203.643 50.1278C202.64 50.5438 201.781 51.1411 201.067 51.9198C200.363 52.6878 199.819 53.6318 199.435 54.7518C199.051 55.8718 198.859 57.1358 198.859 58.5438C198.859 59.9518 199.051 61.2158 199.435 62.3358C199.819 63.4451 200.363 64.3891 201.067 65.1678C201.781 65.9358 202.64 66.5278 203.643 66.9438C204.645 67.3491 205.76 67.5518 206.987 67.5518C208.224 67.5518 209.344 67.3491 210.347 66.9438C211.349 66.5278 212.203 65.9358 212.907 65.1678C213.611 64.3891 214.155 63.4451 214.539 62.3358C214.923 61.2158 215.115 59.9518 215.115 58.5438ZM225.942 60.4318V69.9998H222.854V47.0718H229.334C230.785 47.0718 232.038 47.2211 233.094 47.5198C234.15 47.8078 235.019 48.2291 235.702 48.7838C236.395 49.3384 236.907 50.0104 237.238 50.7998C237.569 51.5784 237.734 52.4531 237.734 53.4238C237.734 54.2344 237.606 54.9918 237.35 55.6958C237.094 56.3998 236.721 57.0344 236.23 57.5998C235.75 58.1544 235.158 58.6291 234.454 59.0238C233.761 59.4184 232.971 59.7171 232.086 59.9198C232.47 60.1438 232.811 60.4691 233.11 60.8958L239.798 69.9998H237.046C236.481 69.9998 236.065 69.7811 235.798 69.3438L229.846 61.1518C229.665 60.8958 229.467 60.7144 229.254 60.6078C229.041 60.4904 228.721 60.4318 228.294 60.4318H225.942ZM225.942 58.1758H229.19C230.097 58.1758 230.891 58.0691 231.574 57.8558C232.267 57.6318 232.843 57.3224 233.302 56.9278C233.771 56.5224 234.123 56.0424 234.358 55.4878C234.593 54.9331 234.71 54.3198 234.71 53.6478C234.71 52.2824 234.257 51.2531 233.35 50.5598C232.454 49.8664 231.115 49.5198 229.334 49.5198H225.942V58.1758ZM261.992 69.9998H259.592C259.314 69.9998 259.09 69.9304 258.92 69.7918C258.749 69.6531 258.621 69.4771 258.536 69.2638L256.392 63.7278H246.104L243.96 69.2638C243.885 69.4558 243.757 69.6264 243.576 69.7758C243.394 69.9251 243.17 69.9998 242.904 69.9998H240.504L249.672 47.0718H252.824L261.992 69.9998ZM246.968 61.4878H255.528L251.928 52.1598C251.693 51.5838 251.464 50.8638 251.24 49.9998C251.122 50.4371 251.005 50.8424 250.888 51.2158C250.781 51.5784 250.674 51.8984 250.568 52.1758L246.968 61.4878ZM274.414 67.7438C275.033 67.7438 275.598 67.7171 276.11 67.6638C276.633 67.5998 277.124 67.5091 277.582 67.3918C278.041 67.2744 278.473 67.1358 278.878 66.9758C279.284 66.8051 279.689 66.6131 280.094 66.3998V61.3438H276.542C276.34 61.3438 276.174 61.2851 276.046 61.1678C275.929 61.0504 275.87 60.9064 275.87 60.7358V58.9758H282.91V67.7758C282.334 68.1918 281.732 68.5544 281.102 68.8638C280.484 69.1731 279.817 69.4344 279.102 69.6478C278.398 69.8504 277.641 69.9998 276.83 70.0958C276.02 70.2024 275.14 70.2558 274.19 70.2558C272.526 70.2558 271.001 69.9731 269.614 69.4078C268.228 68.8318 267.033 68.0318 266.03 67.0078C265.028 65.9731 264.244 64.7358 263.678 63.2958C263.124 61.8558 262.846 60.2718 262.846 58.5438C262.846 56.7944 263.118 55.1998 263.662 53.7598C264.217 52.3198 265.001 51.0878 266.014 50.0638C267.038 49.0291 268.27 48.2291 269.71 47.6638C271.161 47.0984 272.782 46.8158 274.574 46.8158C275.481 46.8158 276.324 46.8851 277.102 47.0238C277.881 47.1518 278.601 47.3438 279.262 47.5998C279.934 47.8451 280.553 48.1491 281.118 48.5118C281.684 48.8638 282.212 49.2638 282.702 49.7118L281.822 51.1198C281.641 51.4078 281.406 51.5518 281.118 51.5518C280.948 51.5518 280.761 51.4931 280.558 51.3758C280.292 51.2264 279.993 51.0451 279.662 50.8318C279.332 50.6184 278.926 50.4158 278.446 50.2238C277.977 50.0211 277.417 49.8504 276.766 49.7118C276.126 49.5731 275.364 49.5038 274.478 49.5038C273.188 49.5038 272.02 49.7171 270.974 50.1438C269.929 50.5598 269.038 51.1624 268.302 51.9518C267.566 52.7304 267.001 53.6798 266.606 54.7998C266.212 55.9091 266.014 57.1571 266.014 58.5438C266.014 59.9944 266.217 61.2904 266.622 62.4318C267.038 63.5624 267.62 64.5224 268.366 65.3118C269.113 66.1011 269.998 66.7038 271.022 67.1198C272.046 67.5358 273.177 67.7438 274.414 67.7438ZM301.818 47.0718V49.5998H290.81V57.2158H299.722V59.6478H290.81V67.4718H301.818V69.9998H287.69V47.0718H301.818Z" fill="white"/>
<circle cx="71" cy="57.9998" r="28" fill="url(#paint2_linear)"/>
<path d="M52.2033 49.0015V66.9998H50.0283V49.0015H52.2033ZM61.0462 54.4267C61.9504 54.4267 62.765 54.5774 63.4899 54.8788C64.2231 55.1802 64.8421 55.6078 65.3472 56.1617C65.8604 56.7156 66.2514 57.3877 66.5202 58.1778C66.7971 58.9598 66.9356 59.8355 66.9356 60.8048C66.9356 61.7823 66.7971 62.6621 66.5202 63.4441C66.2514 64.2261 65.8604 64.8941 65.3472 65.448C64.8421 66.0019 64.2231 66.4295 63.4899 66.7309C62.765 67.0242 61.9504 67.1708 61.0462 67.1708C60.142 67.1708 59.3233 67.0242 58.5902 66.7309C57.8652 66.4295 57.2462 66.0019 56.733 65.448C56.2198 64.8941 55.8247 64.2261 55.5478 63.4441C55.2708 62.6621 55.1323 61.7823 55.1323 60.8048C55.1323 59.8355 55.2708 58.9598 55.5478 58.1778C55.8247 57.3877 56.2198 56.7156 56.733 56.1617C57.2462 55.6078 57.8652 55.1802 58.5902 54.8788C59.3233 54.5774 60.142 54.4267 61.0462 54.4267ZM61.0462 65.4724C62.2681 65.4724 63.1804 65.0651 63.7832 64.2505C64.386 63.4278 64.6874 62.2833 64.6874 60.8171C64.6874 59.3427 64.386 58.1941 63.7832 57.3714C63.1804 56.5487 62.2681 56.1373 61.0462 56.1373C60.4271 56.1373 59.8895 56.2432 59.4333 56.455C58.9771 56.6668 58.5943 56.9722 58.2848 57.3714C57.9834 57.7705 57.7553 58.2633 57.6005 58.8498C57.4539 59.4282 57.3806 60.0839 57.3806 60.8171C57.3806 61.5502 57.4539 62.2059 57.6005 62.7843C57.7553 63.3626 57.9834 63.8514 58.2848 64.2505C58.5943 64.6415 58.9771 64.9429 59.4333 65.1547C59.8895 65.3665 60.4271 65.4724 61.0462 65.4724ZM73.7821 54.4144C74.3198 54.4144 74.8207 54.4755 75.285 54.5977C75.7575 54.7118 76.1852 54.8828 76.568 55.1109H79.9282V55.9173C79.9282 56.1862 79.7571 56.3572 79.415 56.4305L78.0098 56.626C78.2868 57.1555 78.4253 57.7461 78.4253 58.3978C78.4253 59.0005 78.3071 59.5504 78.0709 60.0473C77.8428 60.536 77.5211 60.9555 77.1056 61.3058C76.6983 61.6561 76.2096 61.9249 75.6394 62.1123C75.0773 62.2996 74.4582 62.3933 73.7821 62.3933C73.2038 62.3933 72.658 62.324 72.1448 62.1856C71.8842 62.3485 71.6846 62.5236 71.5461 62.711C71.4158 62.8983 71.3506 63.0816 71.3506 63.2608C71.3506 63.5541 71.4687 63.7781 71.7049 63.9328C71.9412 64.0795 72.2548 64.1854 72.6458 64.2505C73.0368 64.3157 73.4807 64.3564 73.9776 64.3727C74.4745 64.389 74.9796 64.4175 75.4928 64.4583C76.0141 64.4908 76.5232 64.5519 77.0201 64.6415C77.517 64.7311 77.9609 64.8778 78.3519 65.0814C78.7429 65.2851 79.0566 65.5661 79.2928 65.9245C79.529 66.2829 79.6471 66.7472 79.6471 67.3174C79.6471 67.8469 79.5127 68.3601 79.2439 68.857C78.9833 69.3539 78.6045 69.7938 78.1076 70.1766C77.6107 70.5676 77.0038 70.8772 76.287 71.1053C75.5701 71.3415 74.7596 71.4596 73.8554 71.4596C72.9513 71.4596 72.157 71.37 71.4728 71.1908C70.7967 71.0116 70.2346 70.7713 69.7866 70.4699C69.3386 70.1685 69.0005 69.8182 68.7724 69.4191C68.5525 69.0281 68.4425 68.6167 68.4425 68.185C68.4425 67.574 68.634 67.0568 69.0168 66.6332C69.4078 66.2015 69.9414 65.8593 70.6175 65.6068C70.2672 65.4439 69.9862 65.228 69.7744 64.9592C69.5707 64.6823 69.4689 64.3157 69.4689 63.8595C69.4689 63.6803 69.5015 63.497 69.5667 63.3097C69.6318 63.1142 69.7296 62.9228 69.8599 62.7354C69.9984 62.5481 70.1654 62.3688 70.3609 62.1978C70.5564 62.0267 70.7845 61.876 71.0451 61.7457C70.4342 61.4036 69.9536 60.9515 69.6033 60.3894C69.2612 59.8192 69.0901 59.1553 69.0901 58.3978C69.0901 57.795 69.2042 57.2492 69.4323 56.7604C69.6685 56.2635 69.9943 55.844 70.4098 55.5019C70.8252 55.1516 71.318 54.8828 71.8882 54.6955C72.4666 54.5081 73.0979 54.4144 73.7821 54.4144ZM77.6433 67.6718C77.6433 67.3622 77.5577 67.1138 77.3867 66.9264C77.2156 66.7391 76.9834 66.5965 76.6902 66.4988C76.3969 66.3929 76.0589 66.3155 75.676 66.2666C75.2932 66.2178 74.89 66.1852 74.4664 66.1689C74.0428 66.1444 73.6111 66.12 73.1712 66.0956C72.7313 66.0711 72.3118 66.0263 71.9127 65.9612C71.4484 66.1811 71.0696 66.4499 70.7763 66.7676C70.4912 67.0853 70.3487 67.4641 70.3487 67.9039C70.3487 68.1809 70.4179 68.4375 70.5564 68.6737C70.703 68.9181 70.9229 69.1258 71.2162 69.2969C71.5094 69.4761 71.876 69.6146 72.3159 69.7123C72.7639 69.8182 73.2893 69.8712 73.8921 69.8712C74.4786 69.8712 75.004 69.8182 75.4683 69.7123C75.9326 69.6064 76.3236 69.4557 76.6413 69.2602C76.9672 69.0647 77.2156 68.8326 77.3867 68.5638C77.5577 68.2949 77.6433 67.9976 77.6433 67.6718ZM73.7821 60.9515C74.222 60.9515 74.6089 60.8904 74.9429 60.7682C75.285 60.646 75.5701 60.4749 75.7982 60.255C76.0263 60.0351 76.1974 59.7744 76.3114 59.473C76.4255 59.1635 76.4825 58.8254 76.4825 58.4588C76.4825 57.7013 76.2503 57.0985 75.786 56.6505C75.3298 56.2025 74.6619 55.9784 73.7821 55.9784C72.9105 55.9784 72.2426 56.2025 71.7783 56.6505C71.3221 57.0985 71.094 57.7013 71.094 58.4588C71.094 58.8254 71.151 59.1635 71.2651 59.473C71.3873 59.7744 71.5624 60.0351 71.7905 60.255C72.0186 60.4749 72.2996 60.646 72.6336 60.7682C72.9676 60.8904 73.3504 60.9515 73.7821 60.9515ZM87.1065 54.4267C88.0107 54.4267 88.8253 54.5774 89.5502 54.8788C90.2834 55.1802 90.9024 55.6078 91.4075 56.1617C91.9207 56.7156 92.3117 57.3877 92.5805 58.1778C92.8575 58.9598 92.9959 59.8355 92.9959 60.8048C92.9959 61.7823 92.8575 62.6621 92.5805 63.4441C92.3117 64.2261 91.9207 64.8941 91.4075 65.448C90.9024 66.0019 90.2834 66.4295 89.5502 66.7309C88.8253 67.0242 88.0107 67.1708 87.1065 67.1708C86.2023 67.1708 85.3836 67.0242 84.6505 66.7309C83.9255 66.4295 83.3065 66.0019 82.7933 65.448C82.2801 64.8941 81.885 64.2261 81.6081 63.4441C81.3311 62.6621 81.1926 61.7823 81.1926 60.8048C81.1926 59.8355 81.3311 58.9598 81.6081 58.1778C81.885 57.3877 82.2801 56.7156 82.7933 56.1617C83.3065 55.6078 83.9255 55.1802 84.6505 54.8788C85.3836 54.5774 86.2023 54.4267 87.1065 54.4267ZM87.1065 65.4724C88.3284 65.4724 89.2407 65.0651 89.8435 64.2505C90.4463 63.4278 90.7477 62.2833 90.7477 60.8171C90.7477 59.3427 90.4463 58.1941 89.8435 57.3714C89.2407 56.5487 88.3284 56.1373 87.1065 56.1373C86.4874 56.1373 85.9498 56.2432 85.4936 56.455C85.0374 56.6668 84.6546 56.9722 84.3451 57.3714C84.0437 57.7705 83.8156 58.2633 83.6608 58.8498C83.5142 59.4282 83.4409 60.0839 83.4409 60.8171C83.4409 61.5502 83.5142 62.2059 83.6608 62.7843C83.8156 63.3626 84.0437 63.8514 84.3451 64.2505C84.6546 64.6415 85.0374 64.9429 85.4936 65.1547C85.9498 65.3665 86.4874 65.4724 87.1065 65.4724Z" fill="white"/>
<circle cx="317" cy="168" r="6" fill="#73BCFF"/>
<defs>
<filter id="filter0_dd" x="0" y="65.9998" width="355" height="832" filterUnits="userSpaceOnUse" color-interpolation-filters="sRGB">
<feFlood flood-opacity="0" result="BackgroundImageFix"/>
<feColorMatrix in="SourceAlpha" type="matrix" values="0 0 0 0 0 0 0 0 0 0 0 0 0 0 0 0 0 0 127 0"/>
<feOffset dx="2" dy="2"/>
<feGaussianBlur stdDeviation="5"/>
<feColorMatrix type="matrix" values="0 0 0 0 0.027451 0 0 0 0 0.243137 0 0 0 0 0.443137 0 0 0 0.05 0"/>
<feBlend mode="normal" in2="BackgroundImageFix" result="effect1_dropShadow"/>
<feColorMatrix in="SourceAlpha" type="matrix" values="0 0 0 0 0 0 0 0 0 0 0 0 0 0 0 0 0 0 127 0"/>
<feOffset dx="-2" dy="-2"/>
<feGaussianBlur stdDeviation="2.5"/>
<feColorMatrix type="matrix" values="0 0 0 0 1 0 0 0 0 1 0 0 0 0 1 0 0 0 0.8 0"/>
<feBlend mode="normal" in2="effect1_dropShadow" result="effect2_dropShadow"/>
<feBlend mode="normal" in="SourceGraphic" in2="effect2_dropShadow" result="shape"/>
</filter>
<filter id="filter1_d" x="39" y="723" width="40" height="40" filterUnits="userSpaceOnUse" color-interpolation-filters="sRGB">
<feFlood flood-opacity="0" result="BackgroundImageFix"/>
<feColorMatrix in="SourceAlpha" type="matrix" values="0 0 0 0 0 0 0 0 0 0 0 0 0 0 0 0 0 0 127 0"/>
<feOffset dx="1" dy="2"/>
<feGaussianBlur stdDeviation="1.5"/>
<feColorMatrix type="matrix" values="0 0 0 0 0.0901961 0 0 0 0 0.272157 0 0 0 0 0.545098 0 0 0 0.3 0"/>
<feBlend mode="normal" in2="BackgroundImageFix" result="effect1_dropShadow"/>
<feBlend mode="normal" in="SourceGraphic" in2="effect1_dropShadow" result="shape"/>
</filter>
<filter id="filter2_d" x="39" y="767" width="40" height="40" filterUnits="userSpaceOnUse" color-interpolation-filters="sRGB">
<feFlood flood-opacity="0" result="BackgroundImageFix"/>
<feColorMatrix in="SourceAlpha" type="matrix" values="0 0 0 0 0 0 0 0 0 0 0 0 0 0 0 0 0 0 127 0"/>
<feOffset dx="1" dy="2"/>
<feGaussianBlur stdDeviation="1.5"/>
<feColorMatrix type="matrix" values="0 0 0 0 0.0901961 0 0 0 0 0.272157 0 0 0 0 0.545098 0 0 0 0.3 0"/>
<feBlend mode="normal" in2="BackgroundImageFix" result="effect1_dropShadow"/>
<feBlend mode="normal" in="SourceGraphic" in2="effect1_dropShadow" result="shape"/>
</filter>
<filter id="filter3_d" x="39" y="811" width="40" height="40" filterUnits="userSpaceOnUse" color-interpolation-filters="sRGB">
<feFlood flood-opacity="0" result="BackgroundImageFix"/>
<feColorMatrix in="SourceAlpha" type="matrix" values="0 0 0 0 0 0 0 0 0 0 0 0 0 0 0 0 0 0 127 0"/>
<feOffset dx="1" dy="2"/>
<feGaussianBlur stdDeviation="1.5"/>
<feColorMatrix type="matrix" values="0 0 0 0 0.0901961 0 0 0 0 0.272157 0 0 0 0 0.545098 0 0 0 0.3 0"/>
<feBlend mode="normal" in2="BackgroundImageFix" result="effect1_dropShadow"/>
<feBlend mode="normal" in="SourceGraphic" in2="effect1_dropShadow" result="shape"/>
</filter>
<linearGradient id="paint0_linear" x1="176" y1="527" x2="174.589" y2="1019" gradientUnits="userSpaceOnUse">
<stop stop-color="#6BC6FC"/>
<stop offset="1" stop-color="#5FA4E3"/>
</linearGradient>
<linearGradient id="paint1_linear" x1="176" y1="186.5" x2="176.348" y2="-95.4998" gradientUnits="userSpaceOnUse">
<stop stop-color="#6BC6FC"/>
<stop offset="1" stop-color="#5FA4E3"/>
</linearGradient>
<linearGradient id="paint2_linear" x1="71" y1="29.9998" x2="71" y2="85.9998" gradientUnits="userSpaceOnUse">
<stop stop-color="white"/>
<stop offset="1" stop-color="#AEDAFF"/>
</linearGradient>
<clipPath id="clip0">
<rect width="34" height="34" fill="white" transform="translate(41 724)"/>
</clipPath>
<clipPath id="clip1">
<rect width="34" height="34" fill="white" transform="translate(41 768)"/>
</clipPath>
<clipPath id="clip2">
<rect width="34" height="34" fill="white" transform="translate(41 812)"/>
</clipPath>
</defs>
</svg>
