<svg width="393" height="426" viewBox="0 0 393 426" fill="none" xmlns="http://www.w3.org/2000/svg">
<path d="M82.6049 292.873L71.2014 309.8L59.4996 315.632L52.1185 305.918L54.2266 302.844L59.9946 288.925L82.6049 292.873Z" fill="#FFCDB0"/>
<path d="M62.9326 375.177L72.7683 361.245L101.995 361.787L80.4291 383.062L80.4197 383.566L68.3541 381.83L62.9326 375.177Z" fill="#FFCDB0"/>
<path d="M73.5012 325.45C74.3328 318.463 73.9238 314.922 71.3621 309.393C62.6246 310.103 58.5673 309.047 52.2336 305.623C28.2417 314.691 5.35377 314.866 6.97794 324.577L73.5012 325.45Z" fill="white"/>
<path d="M73.5023 325.447L6.979 324.575C7.31091 326.67 7.71143 327.695 9.27087 328.905L73.4462 329.747C73.9092 328.242 73.9218 327.301 73.5023 325.447Z" fill="#F0F0F0"/>
<path d="M78.1228 399.264C80.9626 392.826 81.6077 389.321 80.776 383.284C72.2132 381.406 68.6424 379.21 63.5879 374.082C37.9926 375.733 16.0554 369.202 14.7669 378.963L78.1228 399.264Z" fill="white"/>
<path d="M78.1235 399.262L14.7676 378.96C14.4717 381.062 14.5547 382.159 15.6919 383.772L76.8117 403.357C77.6947 402.053 77.9822 401.157 78.1235 399.262Z" fill="#F0F0F0"/>
<path d="M121.715 173.997C149.489 169.375 206.951 199.342 216.225 204.308L220.5 203.498L219.724 206.998L247.502 231.998L197.903 253.237C164.709 237.261 160.871 230.892 132.308 218.761C112.546 251.8 100.95 270.39 79.7918 301.588L55.3069 292.093C55.272 292.152 55.2571 292.147 55.2627 292.076L55.3069 292.093C56.7453 289.663 92.1642 178.915 121.715 173.997Z" fill="#5A5A5A"/>
<path d="M183.751 246.058C164.612 235.57 154.145 228.416 133.129 219.121C132.665 218.916 132.109 219.094 131.848 219.53C112.6 251.691 101.308 269.837 79.7939 301.586L68.5142 297.16C72.1083 297.62 76.7091 297.645 78.1791 296.403C93.8274 277.411 129.413 217.015 129.413 217.015C130.543 215.385 132.094 215.354 133.551 215.824C157.71 223.621 177.009 238.049 182.915 237.398C193.624 236.218 210.078 224.279 232.501 221.998L244.353 227.567C244.353 227.567 203.138 256.682 183.751 246.058Z" fill="#484848"/>
<path d="M238.799 227.481L294.878 248.166C279.288 278.523 281.502 289.046 160.104 296.882C131.674 334.319 112.501 352.078 89.3806 377.402L66.1341 365.658C88.7178 328.14 103.412 302.254 127.153 271.479C128.723 269.443 130.681 267.734 132.923 266.478C164.485 248.797 194.642 240.426 238.799 227.481Z" fill="#5A5A5A"/>
<path d="M160.048 296.772C251.641 293.64 284.755 283.769 295.001 248.498L277.994 243.357C269.801 272.932 232.676 280.904 156.344 292.437C107.802 356.871 89.2297 370.622 89.2297 370.622C85.9419 371.999 80.7586 371.42 76.6223 370.893L89.2297 378.498C119.912 347.708 135.505 328.946 160.048 296.772Z" fill="#484848"/>
<path d="M247.84 90.8045C243.717 98.1786 239.364 97.4976 236.045 103.304L236.847 108.729L223.723 109.226L222.918 103.023C220.922 101.136 219.237 98.9374 220.656 83.9502C220.426 80.2715 220.333 78.2887 219.519 73.2496C219.411 70.2709 222.279 69.9783 222.775 72.7688C223.477 77.0656 224.541 80.6305 225.083 81.7147C225.44 82.0795 225.874 81.9572 226.292 81.565C226.71 81.1728 226.669 74.2675 226.45 69.1208C225.998 65.3061 230.011 64.3591 230.297 68.8854C230.437 73.0383 230.183 80.0886 230.839 81.565C231.042 82.0222 231.589 81.7149 231.589 81.7149C232.131 80.6307 232.519 73.6963 232.959 67.3839C233.033 63.3795 237.052 63.1626 237.009 67.3837C236.971 71.2701 235.925 79.5462 235.925 82.799C235.925 83.3978 236.586 84.3066 237.009 83.8832C238.094 82.799 239.441 78.5321 241.346 74.125C243.037 70.5474 245.559 72.3428 244.599 75.2092C242.059 82.7928 239.72 87.136 238.332 94.7596C240.423 94.329 245.822 86.9261 247.84 90.8045Z" fill="#FFCDB0"/>
<path d="M222.104 104.941C228.879 107.309 230.284 106.04 237.139 105.655C243.06 126.974 245.118 141.559 253.993 145.305C262.534 127.508 277.914 119.699 302.175 118.832C311.768 132.234 318.027 130.86 329.48 128.201C374.343 153.943 342.536 226.187 324.663 234.893C321.067 236.645 316.891 237.518 312.229 237.64C307.535 241.764 302.956 244.936 295.264 248.76C281 246.499 258.5 238.999 241.5 228.499C230 219.999 221.676 210.999 219.588 206.999C217.5 202.999 216.983 200.289 219.589 195.29C225.671 193.968 233.837 186.405 237.139 183.498C212.49 158.706 219.525 130.601 222.104 104.941Z" fill="#5E9AD2"/>
<path d="M301.501 245.499C287.181 245.499 258.536 232.649 227 212.499L234.502 212.998C236.129 213.667 236.978 217.38 238.501 218C265.113 228.83 277.672 229.506 312.327 237.46C310.226 239.446 304.076 243.961 301.501 245.499Z" fill="#4D8EC8"/>
<path d="M311.527 207.389C310.294 213.272 246.501 206 246.501 206L242.502 209.998L239.001 207.498L241.985 203.498C242.79 202.888 244.002 202.998 257.002 199.998C270.002 196.998 287.002 195.498 294.18 191.441C301.359 187.383 320.402 163.698 320.402 163.698C315.433 188.491 313.565 197.672 311.527 207.389Z" fill="#4D8EC8"/>
<path d="M246.501 178.998C253.547 179.632 262.22 177.164 270.501 168.998C270.501 187.998 256.001 194.498 239.001 197.498C232.698 195.98 232.819 176.259 230.002 171.498C233.51 172.571 239.456 178.363 246.501 178.998Z" fill="#4D8EC8"/>
<path d="M329.637 128.295L337.72 97.6328L308.659 104.565L300.472 123.209C305.922 138.755 322.242 131.971 329.637 128.295Z" fill="#FFCDB0"/>
<path d="M338.186 97.1178C345.59 81.2717 307.172 107.953 307.172 107.953L303.019 117.522C320.72 121.087 330.782 112.964 338.186 97.1178Z" fill="#E9B598"/>
<path d="M339.575 92.0569C340.291 107.51 282.689 145.587 299.701 68.5955C316.345 48.0861 341.594 63.3466 337.508 83.1596L338.066 81.8895C348.637 63.5691 355.017 92.6497 339.575 92.0569Z" fill="#FFCDB0"/>
<path d="M300.446 69.69C290.439 86.1209 265.212 55.324 289.552 54.309C299.159 50.3591 288.569 41.0121 286.232 48.0599C281.33 40.3371 295.23 29.1724 305.921 40.0452C310.696 46.8766 313.964 37.2655 319.077 35.9759C330.518 33.8275 346.118 40.8972 345.536 49.3465C363.606 55.9757 358.166 67.752 347.457 77.1831C341.914 75.1034 340.278 79.4156 337.161 84.5246C333.479 65.0627 331.708 61.7955 315.496 64.2766C314.259 72.649 305.192 71.695 300.903 69.884C300.738 69.8147 300.586 69.7502 300.446 69.69Z" fill="#5A5A5A"/>
<ellipse cx="322.565" cy="85.5785" rx="2.4191" ry="3.41929" transform="rotate(20.4359 322.565 85.5785)" fill="#383838"/>
<ellipse cx="310.394" cy="97.3814" rx="4.0564" ry="1.93908" transform="rotate(13.574 310.394 97.3814)" fill="#E9B598"/>
<ellipse cx="328.814" cy="94.0381" rx="4.81647" ry="3.10224" transform="rotate(-15.3172 328.814 94.0381)" fill="#FFB393"/>
<path d="M304.784 104.437C304.575 104.445 304.392 104.582 304.327 104.782C304.262 104.982 304.329 105.201 304.494 105.33C307.524 107.705 310.402 108.475 313.289 108.014C316.144 107.558 318.938 105.907 321.84 103.598C322.024 103.451 322.081 103.194 321.976 102.983C321.87 102.772 321.631 102.663 321.403 102.722C315.947 104.138 312.25 104.234 307.659 104.353C306.743 104.376 305.792 104.401 304.784 104.437Z" fill="white" stroke="#FFB393" stroke-linecap="round" stroke-linejoin="round"/>
<path d="M303.085 93.6547C302.247 95.1492 299.687 95.3065 297.367 94.0059C296.116 92.8527 296.681 89.9525 296.672 88.2145C296.667 87.0551 298.08 87.293 300.4 88.5936C302.721 89.8942 303.923 92.1601 303.085 93.6547Z" fill="#FFB393"/>
<ellipse cx="304.919" cy="83.7336" rx="2.30288" ry="3.34814" transform="rotate(1.82626 304.919 83.7336)" fill="#383838"/>
<path d="M304.338 77.2965C302.152 77.4878 296.986 77.9142 296.837 76.2161C296.689 74.518 301.763 73.0495 303.95 72.8582C306.137 72.667 307.996 73.5055 308.103 74.7311C308.21 75.9567 306.525 77.1053 304.338 77.2965Z" fill="#5A5A5A"/>
<path d="M324.046 79.2274C326.268 79.7109 331.658 81.4937 332.02 79.8281C332.383 78.1624 327.216 75.3575 324.993 74.874C322.771 74.3905 320.757 74.9731 320.496 76.1752C320.234 77.3774 321.824 78.7439 324.046 79.2274Z" fill="#5A5A5A"/>
<path d="M329.5 128.499C314.965 131.969 307.343 132.863 300.5 120.998L287.5 126.999L294 145.499L337.5 139.499L329.5 128.499Z" fill="#5E9AD2"/>
<path d="M244.5 209.999L220 202.499C222 208.499 224 212.999 240.501 218.499L244.5 209.999Z" fill="#FFCDB0"/>
<path d="M244.604 201.238L232.62 144.795C232.186 142.75 230.578 141.158 228.528 140.744L158.882 126.692C155.213 125.952 151.972 129.183 152.702 132.854L164.221 190.79C164.633 192.865 166.252 194.489 168.326 194.908L267.492 214.916C269.04 215.228 270.548 214.226 270.861 212.678C271.173 211.129 270.171 209.621 268.623 209.309L248.696 205.288C246.647 204.875 245.039 203.283 244.604 201.238Z" fill="#CECECE"/>
<g filter="url(#filter0_f)">
<path d="M188.437 172.756C191.537 176.691 196.797 177.477 200.186 174.512C202.003 172.921 202.913 170.575 202.889 168.134C197.493 170.228 192.443 162.844 195.308 158.614C193.066 158.174 190.752 158.693 188.96 160.261C185.571 163.227 185.337 168.821 188.437 172.756Z" fill="white"/>
</g>
<path d="M188.4 172.544C191.5 176.48 196.76 177.265 200.149 174.3C201.966 172.709 202.876 170.363 202.851 167.922C197.456 170.016 192.405 162.632 195.271 158.402C193.029 157.962 190.714 158.481 188.923 160.049C185.534 163.015 185.3 168.609 188.4 172.544Z" fill="white"/>
<defs>
<filter id="filter0_f" x="183.558" y="155.765" width="22.0299" height="23.2433" filterUnits="userSpaceOnUse" color-interpolation-filters="sRGB">
<feFlood flood-opacity="0" result="BackgroundImageFix"/>
<feBlend mode="normal" in="SourceGraphic" in2="BackgroundImageFix" result="shape"/>
<feGaussianBlur stdDeviation="1.34947" result="effect1_foregroundBlur"/>
</filter>
</defs>
</svg>
