<svg width="560" height="780" viewBox="0 0 560 780" fill="none" xmlns="http://www.w3.org/2000/svg">
<mask id="mask0" mask-type="alpha" maskUnits="userSpaceOnUse" x="0" y="0" width="560" height="780">
<path d="M0 0H545C553.284 0 560 6.71573 560 15V765C560 773.284 553.284 780 545 780H0V0Z" fill="#64AEEA"/>
</mask>
<g mask="url(#mask0)">
<path d="M59.561 375.903C45.1041 374.661 38.4213 380.642 38 395.133H385.889C387.057 388.722 378.885 376.776 366.659 379.982C359.055 363.171 337.473 355.145 321.789 364.831C316.34 341.648 285.002 327.556 260.02 349.098C261.011 336.174 245.387 318.536 225.639 324.04C228.689 298.414 189.924 278.508 170.279 310.638C149.985 287.891 97.4521 290.443 98.6038 341.522C77.8719 344.256 63.2502 351.26 59.561 375.903Z" fill="white" fill-opacity="0.1"/>
<path d="M310.439 94.9031C324.896 93.6606 331.579 99.6421 332 114.133H-15.8892C-17.0569 107.722 -8.88535 95.7762 3.34088 98.9822C10.9455 82.1707 32.5272 74.1455 48.211 83.8313C53.6603 60.6475 84.9982 46.5555 109.98 68.0976C108.989 55.1744 124.613 37.536 144.361 43.0404C141.311 17.4144 180.076 -2.49211 199.721 29.6376C220.015 6.89142 272.548 9.44338 271.396 60.5222C292.128 63.256 306.75 70.2596 310.439 94.9031Z" fill="white" fill-opacity="0.1"/>
<path d="M270.667 769.829C270.112 767.913 249.008 756.867 246 779.829H754C751.867 763.312 734.544 751.786 719.334 762.496C704.196 733.591 680.524 730.556 656.667 747.162C656.808 734.944 648.548 728.271 636 728.496C628.509 704.834 609.93 688.499 579.333 693.162C555.577 645.934 492.226 653.985 481.333 706.496C459.715 680.225 424.977 695.907 421.333 715.162C409.398 711.045 403.611 712.236 394.667 719.162C378.498 699.762 351.347 699.528 344 732.496C328.445 733.312 323.006 737.151 321.333 751.829C303.301 741.262 283.046 737.941 270.667 769.829Z" fill="white" fill-opacity="0.1"/>
<path d="M226.667 509.829C226.112 507.913 205.008 496.867 202 519.829H710C707.867 503.312 690.544 491.786 675.334 502.496C660.196 473.591 636.524 470.556 612.667 487.162C612.808 474.944 604.548 468.271 592 468.496C584.509 444.834 565.93 428.499 535.333 433.162C511.577 385.934 448.226 393.985 437.333 446.496C415.715 420.225 380.977 435.907 377.333 455.162C365.398 451.045 359.611 452.236 350.667 459.162C334.498 439.762 307.347 439.528 300 472.496C284.445 473.312 279.006 477.151 277.333 491.829C259.301 481.262 239.046 477.941 226.667 509.829Z" fill="white" fill-opacity="0.1"/>
<path d="M395 173.365C375.606 166.41 368.778 175.82 365 189.365H590.333C587.765 174.026 575.902 166.996 561.667 173.365C562.677 156.326 546.463 145.208 529.667 148.031C523.236 108.42 453.493 90.1203 429 141.365C404.255 139.274 394.271 155.891 395 173.365Z" fill="white" fill-opacity="0.1"/>
<path d="M-78 721.365C-97.394 714.41 -104.222 723.82 -108 737.365H117.333C114.765 722.026 102.902 714.996 88.6667 721.365C89.6771 704.326 73.4633 693.208 56.6667 696.031C50.2362 656.42 -19.5069 638.12 -44 689.365C-68.7449 687.274 -78.7288 703.891 -78 721.365Z" fill="white" fill-opacity="0.1"/>
</g>
</svg>
